<svg width="34" height="31" viewBox="0 0 34 31" fill="none" xmlns="http://www.w3.org/2000/svg">
<path fill-rule="evenodd" clip-rule="evenodd" d="M20.203 2.15687C18.7854 -0.319053 15.2146 -0.319053 13.797 2.15687L0.704527 25.0225C-1.06205 28.1078 2.12624 31.6617 5.38445 30.2391L15.5231 24.5821C16.4648 24.1709 17.5352 24.1709 18.4769 24.5821L28.6156 30.2391C31.8738 31.6617 35.0621 28.1078 33.2955 25.0226L20.203 2.15687ZM17.1168 18.7546C18.9853 18.7546 20.5001 17.2398 20.5001 15.3712C20.5001 13.5026 18.9853 11.9879 17.1168 11.9879C15.2482 11.9879 13.7334 13.5026 13.7334 15.3712C13.7334 17.2398 15.2482 18.7546 17.1168 18.7546Z" fill="#382CDD"/>
<path d="M9.99922 8.78946L5.38443 6.77455C2.12621 5.35195 -1.06208 8.90582 0.704497 11.9911L4.43526 18.5068L9.99922 8.78946Z" fill="#8880EB"/>
<path d="M29.5647 18.5068L24.0007 8.78946L28.6155 6.77454C31.8738 5.35194 35.062 8.90582 33.2955 11.9911L29.5647 18.5068Z" fill="#8880EB"/>
</svg>
