<svg width="44" height="56" viewBox="0 0 44 56" fill="none" xmlns="http://www.w3.org/2000/svg">
<path d="M31.485 0H2.463C1.655 0 1 0.655 1 1.926V55C1 55.345 1.655 56 2.463 56H42.537C43.345 56 44 55.345 44 55V12.978C44 12.282 43.907 12.058 43.743 11.893L32.107 0.257C31.942 0.093 31.718 0 31.485 0Z" fill="#F1F5FB"/>
<path d="M42.037 56H1.963C1.155 56 0.5 55.345 0.5 54.537V39H43.5V54.537C43.5 55.345 42.845 56 42.037 56Z" fill="#FF5364"/>
<path d="M16.3998 42.924H18.0678V53H16.3998V46.068L14.1438 51.673H12.6948L10.4248 46.068V53H8.75684V42.924H10.4248L13.4188 49.815L16.3998 42.924Z" fill="white"/>
<path d="M22.2108 53H20.5698V42.924H23.4678C23.8958 42.924 24.3198 42.992 24.7388 43.129C25.1578 43.266 25.5338 43.471 25.8668 43.744C26.1998 44.017 26.4688 44.348 26.6738 44.735C26.8788 45.122 26.9818 45.557 26.9818 46.041C26.9818 46.552 26.8948 47.014 26.7218 47.429C26.5488 47.844 26.3068 48.193 25.9968 48.475C25.6868 48.757 25.3128 48.976 24.8758 49.131C24.4388 49.286 23.9548 49.363 23.4268 49.363H22.2098V53H22.2108ZM22.2108 44.168V48.16H23.7148C23.9148 48.16 24.1128 48.126 24.3098 48.057C24.5058 47.989 24.6858 47.877 24.8498 47.722C25.0138 47.567 25.1458 47.351 25.2458 47.073C25.3458 46.795 25.3958 46.451 25.3958 46.041C25.3958 45.877 25.3728 45.687 25.3278 45.474C25.2818 45.26 25.1888 45.055 25.0478 44.859C24.9058 44.663 24.7078 44.499 24.4528 44.367C24.1978 44.235 23.8598 44.169 23.4408 44.169H22.2108V44.168Z" fill="white"/>
<path d="M32.4787 50.648H28.1177V49.35L32.4787 42.924H34.1467V49.35H35.1997V50.649H34.1467V53H32.4787V50.648ZM32.4787 49.35V44.838L29.5797 49.35H32.4787Z" fill="white"/>
<path d="M18.5 28C18.334 28 18.169 27.959 18.019 27.877C17.699 27.701 17.5 27.365 17.5 27V13C17.5 12.635 17.699 12.299 18.019 12.123C18.34 11.948 18.729 11.961 19.038 12.156L30.038 19.156C30.325 19.34 30.5 19.658 30.5 20C30.5 20.342 30.325 20.66 30.037 20.844L19.037 27.844C18.874 27.947 18.687 28 18.5 28ZM19.5 14.821V25.178L27.637 20L19.5 14.821Z" fill="#E1E4E8"/>
<path d="M22.5 35C14.229 35 7.5 28.271 7.5 20C7.5 11.729 14.229 5 22.5 5C30.771 5 37.5 11.729 37.5 20C37.5 28.271 30.771 35 22.5 35ZM22.5 7C15.332 7 9.5 12.832 9.5 20C9.5 27.168 15.332 33 22.5 33C29.668 33 35.5 27.168 35.5 20C35.5 12.832 29.668 7 22.5 7Z" fill="#E1E4E8"/>
<path d="M31.5 0.151001V12H43.349L31.5 0.151001Z" fill="#E1E4E8"/>
</svg>
