<svg width="24" height="24" viewBox="0 0 24 24" fill="none" xmlns="http://www.w3.org/2000/svg">
<path d="M11.9994 0.0395508C5.39242 0.0395508 0.0361328 5.39569 0.0361328 12.0027C0.0361328 18.61 5.39242 23.9657 11.9994 23.9657C18.6071 23.9657 23.9628 18.61 23.9628 12.0027C23.9628 5.39612 18.6073 0.0395508 11.9994 0.0395508ZM17.4857 17.2938C17.2714 17.6453 16.8114 17.7567 16.46 17.541C13.6511 15.8253 10.1151 15.4367 5.95085 16.3881C5.54956 16.4796 5.14956 16.2281 5.05813 15.8267C4.96628 15.4253 5.2167 15.0253 5.61899 14.9338C10.1761 13.8927 14.0851 14.341 17.2386 16.2681C17.59 16.4838 17.7014 16.9424 17.4857 17.2938ZM18.95 14.0364C18.68 14.4753 18.1057 14.6138 17.6671 14.3438C14.4514 12.3673 9.54956 11.7948 5.74599 12.9494C5.2527 13.0984 4.7317 12.8204 4.58199 12.328C4.43342 11.8347 4.71156 11.3147 5.20399 11.1647C9.5487 9.84641 14.95 10.485 18.6428 12.7543C19.0814 13.0243 19.22 13.5984 18.95 14.0364ZM19.0757 10.6444C15.22 8.35427 8.85856 8.14369 5.17728 9.26098C4.58613 9.44027 3.96099 9.10655 3.78185 8.51541C3.6027 7.92398 3.93613 7.29927 4.5277 7.11955C8.75356 5.83669 15.7786 6.08455 20.2177 8.71984C20.7506 9.03541 20.9248 9.72212 20.6091 10.2531C20.2948 10.7848 19.6057 10.9601 19.0757 10.6444Z" fill="#1ED760"/>
</svg>
