<svg width="56" height="56" viewBox="0 0 56 56" fill="none" xmlns="http://www.w3.org/2000/svg">
<path d="M36.985 0H7.963C7.155 0 6.5 0.655 6.5 1.926V55C6.5 55.345 7.155 56 7.963 56H48.037C48.845 56 49.5 55.345 49.5 55V12.978C49.5 12.282 49.407 12.058 49.243 11.893L37.607 0.257C37.442 0.093 37.218 0 36.985 0Z" fill="#F1F5FB"/>
<path d="M37.5 0.151001V12H49.349L37.5 0.151001Z" fill="#E1E4E8"/>
<path d="M19.5142 33.324C19.1662 33.324 18.8322 33.211 18.5472 32.998C17.5062 32.217 17.3662 31.348 17.4322 30.756C17.6142 29.128 19.6272 27.424 23.4172 25.688C24.9212 22.392 26.3522 18.331 27.2052 14.938C26.2072 12.766 25.2372 9.948 25.9442 8.295C26.1922 7.716 26.5012 7.272 27.0782 7.08C27.3062 7.004 27.8822 6.908 28.0942 6.908C28.5982 6.908 29.0412 7.557 29.3552 7.957C29.6502 8.333 30.3192 9.13 28.9822 14.759C30.3302 17.543 32.2402 20.379 34.0702 22.321C35.3812 22.084 36.5092 21.963 37.4282 21.963C38.9942 21.963 39.9432 22.328 40.3302 23.08C40.6502 23.702 40.5192 24.429 39.9402 25.24C39.3832 26.019 38.6152 26.431 37.7202 26.431C36.5042 26.431 35.0882 25.663 33.5092 24.146C30.6722 24.739 27.3592 25.797 24.6812 26.968C23.8452 28.742 23.0442 30.171 22.2982 31.219C21.2732 32.654 20.3892 33.324 19.5142 33.324ZM22.1762 28.198C20.0392 29.399 19.1682 30.386 19.1052 30.942C19.0952 31.034 19.0682 31.276 19.5362 31.634C19.6852 31.587 20.5552 31.19 22.1762 28.198ZM35.8132 23.756C36.6282 24.383 36.8272 24.7 37.3602 24.7C37.5942 24.7 38.2612 24.69 38.5702 24.259C38.7192 24.05 38.7772 23.916 38.8002 23.844C38.6772 23.779 38.5142 23.647 37.6252 23.647C37.1202 23.648 36.4852 23.67 35.8132 23.756ZM28.3432 17.174C27.6282 19.648 26.6842 22.319 25.6692 24.738C27.7592 23.927 30.0312 23.219 32.1652 22.718C30.8152 21.15 29.4662 19.192 28.3432 17.174ZM27.7362 8.712C27.6382 8.745 26.4062 10.469 27.8322 11.928C28.7812 9.81301 27.7792 8.698 27.7362 8.712Z" fill="#E85444"/>
<path d="M48.037 56H7.963C7.155 56 6.5 55.345 6.5 54.537V39H49.5V54.537C49.5 55.345 48.845 56 48.037 56Z" fill="#E85444"/>
<path d="M17.3851 53H15.7441V42.924H18.6421C19.0701 42.924 19.4941 42.992 19.9131 43.129C20.3321 43.266 20.7081 43.471 21.0411 43.744C21.3741 44.017 21.6431 44.348 21.8481 44.735C22.0531 45.122 22.1561 45.557 22.1561 46.041C22.1561 46.552 22.0691 47.014 21.8961 47.429C21.7231 47.844 21.4811 48.193 21.1711 48.475C20.8611 48.757 20.4871 48.976 20.0501 49.131C19.6131 49.286 19.1291 49.363 18.6011 49.363H17.3841V53H17.3851ZM17.3851 44.168V48.16H18.8891C19.0891 48.16 19.2871 48.126 19.4841 48.057C19.6801 47.989 19.8601 47.877 20.0241 47.722C20.1881 47.567 20.3201 47.351 20.4201 47.073C20.5201 46.795 20.5701 46.451 20.5701 46.041C20.5701 45.877 20.5471 45.687 20.5021 45.474C20.4561 45.26 20.3631 45.055 20.2221 44.859C20.0801 44.663 19.8821 44.499 19.6271 44.367C19.3721 44.235 19.0341 44.169 18.6151 44.169H17.3851V44.168Z" fill="white"/>
<path d="M32.219 47.682C32.219 48.511 32.13 49.22 31.952 49.808C31.774 50.396 31.549 50.888 31.275 51.285C31.001 51.682 30.694 51.994 30.352 52.222C30.01 52.45 29.68 52.62 29.361 52.735C29.042 52.849 28.75 52.922 28.486 52.954C28.222 52.984 28.026 53 27.898 53H24.084V42.924H27.119C27.967 42.924 28.712 43.059 29.354 43.327C29.996 43.595 30.53 43.954 30.954 44.4C31.378 44.846 31.694 45.355 31.904 45.924C32.114 46.494 32.219 47.08 32.219 47.682ZM27.352 51.797C28.464 51.797 29.266 51.442 29.758 50.731C30.25 50.02 30.496 48.99 30.496 47.641C30.496 47.222 30.446 46.807 30.346 46.397C30.245 45.987 30.052 45.616 29.765 45.283C29.478 44.95 29.088 44.681 28.596 44.476C28.104 44.271 27.466 44.168 26.682 44.168H25.725V51.797H27.352Z" fill="white"/>
<path d="M36.2661 44.168V47.34H40.4771V48.461H36.2661V53H34.5981V42.924H40.9001V44.168H36.2661Z" fill="white"/>
</svg>
