<svg width="43" height="56" viewBox="0 0 43 56" fill="none" xmlns="http://www.w3.org/2000/svg">
<path d="M30.485 0H1.463C0.655 0 0 0.655 0 1.926V55C0 55.345 0.655 56 1.463 56H41.537C42.345 56 43 55.345 43 55V12.978C43 12.282 42.907 12.058 42.743 11.893L31.107 0.257C30.942 0.093 30.718 0 30.485 0Z" fill="#F1F5FB"/>
<path d="M31 0.151001V12H42.849L31 0.151001Z" fill="#E1E4E8"/>
<path d="M41.537 56H1.463C0.655 56 0 55.345 0 54.537V39H43V54.537C43 55.345 42.345 56 41.537 56Z" fill="#F67A28"/>
<path d="M14.959 50.238C14.959 50.602 14.884 50.956 14.733 51.298C14.582 51.64 14.371 51.941 14.097 52.2C13.823 52.459 13.487 52.667 13.085 52.822C12.683 52.977 12.229 53.054 11.718 53.054C11.499 53.054 11.274 53.042 11.041 53.02C10.808 52.998 10.574 52.958 10.337 52.904C10.1 52.85 9.87396 52.774 9.65996 52.678C9.44596 52.582 9.26196 52.466 9.10596 52.329L9.39296 51.153C9.52096 51.226 9.68196 51.297 9.87796 51.365C10.074 51.433 10.276 51.497 10.486 51.556C10.696 51.615 10.905 51.663 11.115 51.7C11.325 51.737 11.52 51.755 11.703 51.755C12.259 51.755 12.685 51.625 12.981 51.365C13.277 51.105 13.425 50.72 13.425 50.21C13.425 49.9 13.321 49.636 13.111 49.417C12.901 49.198 12.639 49 12.325 48.822C12.011 48.644 11.671 48.467 11.306 48.289C10.941 48.111 10.6 47.901 10.281 47.66C9.96196 47.419 9.69796 47.134 9.48796 46.806C9.27796 46.478 9.17396 46.068 9.17396 45.576C9.17396 45.13 9.25596 44.733 9.41996 44.387C9.58396 44.041 9.80496 43.746 10.083 43.505C10.361 43.264 10.685 43.079 11.054 42.951C11.423 42.823 11.813 42.76 12.223 42.76C12.642 42.76 13.066 42.799 13.494 42.876C13.922 42.953 14.268 43.079 14.533 43.252C14.478 43.37 14.415 43.5 14.342 43.642C14.269 43.784 14.2 43.915 14.137 44.038C14.074 44.161 14.019 44.264 13.973 44.346C13.927 44.428 13.9 44.474 13.891 44.483C13.836 44.456 13.775 44.42 13.706 44.374C13.637 44.328 13.54 44.283 13.412 44.237C13.284 44.191 13.116 44.16 12.906 44.141C12.696 44.122 12.427 44.127 12.099 44.155C11.916 44.174 11.744 44.225 11.579 44.312C11.414 44.399 11.269 44.505 11.141 44.633C11.013 44.761 10.913 44.904 10.84 45.064C10.767 45.224 10.731 45.377 10.731 45.522C10.731 45.886 10.835 46.18 11.045 46.404C11.255 46.628 11.515 46.823 11.824 46.992C12.133 47.161 12.471 47.325 12.836 47.484C13.201 47.643 13.54 47.838 13.855 48.065C14.17 48.292 14.431 48.578 14.641 48.919C14.851 49.26 14.959 49.7 14.959 50.238Z" fill="white"/>
<path d="M19.361 53.055L16.23 42.924H18.103L20.441 51.619L22.916 42.924H24.775L21.494 53.055H19.361Z" fill="white"/>
<path d="M34.519 48.045V51.941C34.309 52.206 34.075 52.421 33.815 52.59C33.555 52.759 33.282 52.898 32.995 53.007C32.708 53.116 32.412 53.194 32.106 53.24C31.8 53.286 31.498 53.308 31.197 53.308C30.595 53.308 30.042 53.199 29.536 52.98C29.03 52.761 28.588 52.438 28.21 52.009C27.832 51.58 27.535 51.043 27.321 50.396C27.107 49.749 27 49.001 27 48.154C27 47.307 27.107 46.561 27.321 45.919C27.535 45.277 27.832 44.741 28.21 44.313C28.588 43.885 29.032 43.559 29.543 43.335C30.054 43.111 30.605 43 31.197 43C31.744 43 32.255 43.091 32.728 43.273C33.201 43.455 33.625 43.729 33.999 44.093L32.864 45.105C32.645 44.84 32.394 44.649 32.112 44.531C31.83 44.413 31.538 44.353 31.237 44.353C30.9 44.353 30.579 44.416 30.273 44.544C29.967 44.672 29.694 44.888 29.453 45.193C29.212 45.498 29.022 45.892 28.886 46.376C28.75 46.86 28.676 47.451 28.667 48.153C28.676 48.837 28.747 49.429 28.879 49.93C29.011 50.431 29.193 50.841 29.426 51.16C29.659 51.479 29.923 51.716 30.219 51.871C30.515 52.026 30.827 52.103 31.156 52.103C31.257 52.103 31.39 52.096 31.559 52.082C31.728 52.068 31.896 52.046 32.065 52.014C32.234 51.982 32.395 51.939 32.55 51.884C32.705 51.829 32.819 51.752 32.892 51.652V49.164H31.183V48.043H34.519V48.045Z" fill="white"/>
<path d="M39 22V16H33V18H27V14H17V18H11V16H5V22H11V20H14.548C9.982 22.636 7 27.588 7 33C7 33.552 7.447 34 8 34C8.553 34 9 33.552 9 33C9 27.754 12.229 23.001 17 21.005V24H27V21.005C31.771 23.002 35 27.755 35 33C35 33.552 35.447 34 36 34C36.553 34 37 33.552 37 33C37 27.588 34.018 22.636 29.452 20H33V22H39ZM9 20H7V18H9V20ZM25 22H19V18.246V16H25V18.246V22ZM35 18H37V20H35V18Z" fill="#E1E4E8"/>
</svg>
