<svg width="121" height="32" viewBox="0 0 121 32" fill="none" xmlns="http://www.w3.org/2000/svg">
<rect width="32" height="32" rx="4" fill="#382CDD"/>
<path fill-rule="evenodd" clip-rule="evenodd" d="M17.8303 8.66108C17.0202 7.24627 14.9798 7.24627 14.1697 8.66108L6.68832 21.7272C5.67885 23.4902 7.50073 25.521 9.36256 24.7081L15.1561 21.4755C15.6942 21.2405 16.3059 21.2405 16.844 21.4755L22.6375 24.7081C24.4993 25.521 26.3212 23.4902 25.3117 21.7272L17.8303 8.66108ZM16.0667 18.1455C17.1345 18.1455 18.0001 17.2799 18.0001 16.2121C18.0001 15.1444 17.1345 14.2788 16.0667 14.2788C14.999 14.2788 14.1334 15.1444 14.1334 16.2121C14.1334 17.2799 14.999 18.1455 16.0667 18.1455Z" fill="#EBEAFC"/>
<path d="M11.9996 12.4511L9.36256 11.2998C7.50073 10.4868 5.67885 12.5176 6.68832 14.2806L8.82018 18.0039L11.9996 12.4511Z" fill="#8880EB"/>
<path d="M23.1799 18.0039L20.0005 12.4511L22.6375 11.2998C24.4993 10.4868 26.3212 12.5176 25.3117 14.2806L23.1799 18.0039Z" fill="#8880EB"/>
<path d="M44.46 23L49.58 9H52.46L57.58 23H54.86L53.74 19.76H48.28L47.14 23H44.46ZM48.98 17.76H53.04L51 11.94L48.98 17.76ZM59.3234 23V13.08H61.6034L61.8434 14.94C62.2034 14.3 62.6901 13.7933 63.3034 13.42C63.9301 13.0333 64.6634 12.84 65.5034 12.84V15.54H64.7834C64.2234 15.54 63.7234 15.6267 63.2834 15.8C62.8434 15.9733 62.4968 16.2733 62.2434 16.7C62.0034 17.1267 61.8834 17.72 61.8834 18.48V23H59.3234ZM71.6731 23C70.6331 23 69.7998 22.7467 69.1731 22.24C68.5465 21.7333 68.2331 20.8333 68.2331 19.54V15.22H66.5331V13.08H68.2331L68.5331 10.42H70.7931V13.08H73.4731V15.22H70.7931V19.56C70.7931 20.04 70.8931 20.3733 71.0931 20.56C71.3065 20.7333 71.6665 20.82 72.1731 20.82H73.4131V23H71.6731ZM80.2372 23.24C79.2372 23.24 78.3505 23.0267 77.5772 22.6C76.8039 22.1733 76.1972 21.5733 75.7572 20.8C75.3172 20.0267 75.0972 19.1333 75.0972 18.12C75.0972 17.0933 75.3105 16.18 75.7372 15.38C76.1772 14.58 76.7772 13.96 77.5372 13.52C78.3105 13.0667 79.2172 12.84 80.2572 12.84C81.2305 12.84 82.0905 13.0533 82.8372 13.48C83.5839 13.9067 84.1639 14.4933 84.5772 15.24C85.0039 15.9733 85.2172 16.7933 85.2172 17.7C85.2172 17.8467 85.2105 18 85.1972 18.16C85.1972 18.32 85.1905 18.4867 85.1772 18.66H77.6372C77.6905 19.4333 77.9572 20.04 78.4372 20.48C78.9305 20.92 79.5239 21.14 80.2172 21.14C80.7372 21.14 81.1705 21.0267 81.5172 20.8C81.8772 20.56 82.1439 20.2533 82.3172 19.88H84.9172C84.7305 20.5067 84.4172 21.08 83.9772 21.6C83.5505 22.1067 83.0172 22.5067 82.3772 22.8C81.7505 23.0933 81.0372 23.24 80.2372 23.24ZM80.2572 14.92C79.6305 14.92 79.0772 15.1 78.5972 15.46C78.1172 15.8067 77.8105 16.34 77.6772 17.06H82.6172C82.5772 16.4067 82.3372 15.8867 81.8972 15.5C81.4572 15.1133 80.9105 14.92 80.2572 14.92ZM87.3703 23V13.08H89.6303L89.8503 14.42C90.1703 13.94 90.5903 13.56 91.1103 13.28C91.6436 12.9867 92.257 12.84 92.9503 12.84C94.4836 12.84 95.5703 13.4333 96.2103 14.62C96.5703 14.0733 97.0503 13.64 97.6503 13.32C98.2636 13 98.9303 12.84 99.6503 12.84C100.944 12.84 101.937 13.2267 102.63 14C103.324 14.7733 103.67 15.9067 103.67 17.4V23H101.11V17.64C101.11 16.7867 100.944 16.1333 100.61 15.68C100.29 15.2267 99.7903 15 99.1103 15C98.417 15 97.857 15.2533 97.4303 15.76C97.017 16.2667 96.8103 16.9733 96.8103 17.88V23H94.2503V17.64C94.2503 16.7867 94.0836 16.1333 93.7503 15.68C93.417 15.2267 92.9036 15 92.2103 15C91.5303 15 90.977 15.2533 90.5503 15.76C90.137 16.2667 89.9303 16.9733 89.9303 17.88V23H87.3703ZM107.481 11.54C107.014 11.54 106.627 11.4 106.321 11.12C106.027 10.84 105.881 10.4867 105.881 10.06C105.881 9.63333 106.027 9.28667 106.321 9.02C106.627 8.74 107.014 8.6 107.481 8.6C107.947 8.6 108.327 8.74 108.621 9.02C108.927 9.28667 109.081 9.63333 109.081 10.06C109.081 10.4867 108.927 10.84 108.621 11.12C108.327 11.4 107.947 11.54 107.481 11.54ZM106.201 23V13.08H108.761V23H106.201ZM115.533 23.24C114.653 23.24 113.879 23.1 113.213 22.82C112.546 22.5267 112.013 22.1267 111.613 21.62C111.213 21.1133 110.973 20.5267 110.893 19.86H113.473C113.553 20.2467 113.766 20.58 114.113 20.86C114.473 21.1267 114.933 21.26 115.493 21.26C116.053 21.26 116.459 21.1467 116.713 20.92C116.979 20.6933 117.113 20.4333 117.113 20.14C117.113 19.7133 116.926 19.4267 116.553 19.28C116.179 19.12 115.659 18.9667 114.993 18.82C114.566 18.7267 114.133 18.6133 113.693 18.48C113.253 18.3467 112.846 18.18 112.473 17.98C112.113 17.7667 111.819 17.5 111.593 17.18C111.366 16.8467 111.253 16.44 111.253 15.96C111.253 15.08 111.599 14.34 112.293 13.74C112.999 13.14 113.986 12.84 115.253 12.84C116.426 12.84 117.359 13.1133 118.053 13.66C118.759 14.2067 119.179 14.96 119.313 15.92H116.893C116.746 15.1867 116.193 14.82 115.233 14.82C114.753 14.82 114.379 14.9133 114.113 15.1C113.859 15.2867 113.733 15.52 113.733 15.8C113.733 16.0933 113.926 16.3267 114.313 16.5C114.699 16.6733 115.213 16.8333 115.853 16.98C116.546 17.14 117.179 17.32 117.753 17.52C118.339 17.7067 118.806 17.9933 119.153 18.38C119.499 18.7533 119.673 19.2933 119.673 20C119.686 20.6133 119.526 21.1667 119.193 21.66C118.859 22.1533 118.379 22.54 117.753 22.82C117.126 23.1 116.386 23.24 115.533 23.24Z" fill="#293039"/>
</svg>
