<svg
    xmlns="http://www.w3.org/2000/svg"
    width="12"
    height="12"
    viewBox="0 0 12 12"
    fill="none"
    class=""
>
    <path
    d="M10.3295 4.66725L11.4986 3.49814C11.7333 3.26336 11.8652 2.94497 11.8652 2.61299C11.8652 2.28101 11.7333 1.96262 11.4986 1.72785L10.1373 0.366652C9.90258 0.131888 9.58417 0 9.25216 0C8.92016 0 8.60175 0.131888 8.36699 0.366652L7.19771 1.53593L10.3295 4.66725Z"
    fill="#6C7E92"
    ></path>
    <path
    d="M6.43507 2.29857L0.773495 7.96018C0.588925 8.14477 0.466651 8.38242 0.423768 8.63991L0.00847984 11.1366C-0.00785834 11.2348 -0.000516928 11.3355 0.0298941 11.4304C0.0603052 11.5252 0.112908 11.6114 0.183332 11.6818C0.253756 11.7523 0.339967 11.8049 0.434804 11.8353C0.529641 11.8657 0.630364 11.873 0.728606 11.8567L3.22527 11.4414C3.48276 11.3986 3.72041 11.2763 3.90497 11.0917L9.5668 5.4299L6.43507 2.29857Z"
    fill="#6C7E92"
    ></path>
    <path
    d="M5.93248 12.0002C5.75368 12.0002 5.5822 11.9292 5.45577 11.8028C5.32934 11.6763 5.25831 11.5049 5.25831 11.3261C5.25831 11.1473 5.32934 10.9758 5.45577 10.8493C5.5822 10.7229 5.75368 10.6519 5.93248 10.6519H11.3258C11.5046 10.6519 11.6761 10.7229 11.8025 10.8493C11.929 10.9758 12 11.1473 12 11.3261C12 11.5049 11.929 11.6763 11.8025 11.8028C11.6761 11.9292 11.5046 12.0002 11.3258 12.0002H5.93248Z"
    fill="#6C7E92"
    ></path>
</svg>