<svg
xmlns="http://www.w3.org/2000/svg"
width="48"
height="48"
viewBox="0 0 48 48"
fill="none"
class=""
>
<path
    fill-rule="evenodd"
    clip-rule="evenodd"
    d="M13.8571 39.6682C11.4988 37.5226 10 34.3366 10 30.1448C10 28.7442 10.4017 27.0404 11.1165 25.1404C11.8271 23.2514 12.8245 21.2276 13.963 19.2045C16.24 15.158 19.0418 11.1834 21.1224 8.40232C22.2248 6.92876 24.3466 6.92876 25.449 8.40232C27.5296 11.1834 30.3314 15.158 32.6084 19.2045C33.747 21.2276 34.7444 23.2514 35.455 25.1404C36.1698 27.0404 36.5714 28.7442 36.5714 30.1448C36.5714 34.3366 35.0726 37.5226 32.7142 39.6682C30.343 41.8254 27.0254 43 23.2858 43C19.5461 43 16.2284 41.8254 13.8571 39.6682ZM12.5112 41.1476C15.3104 43.6942 19.1355 45 23.2858 45C27.436 45 31.261 43.6942 34.0602 41.1476C36.8722 38.5892 38.5714 34.8476 38.5714 30.1448C38.5714 28.4018 38.081 26.4406 37.3268 24.4362C36.5686 22.4206 35.5202 20.3008 34.3514 18.2237C32.0138 14.0696 29.1548 10.0169 27.0504 7.20422C25.1482 4.66146 21.4234 4.66146 19.521 7.20422C17.4167 10.0169 14.5576 14.0696 12.22 18.2237C11.0512 20.3008 10.0028 22.4206 9.24456 24.4362C8.49044 26.4406 8 28.4018 8 30.1448C8 34.8476 9.69916 38.5892 12.5112 41.1476Z"
    fill="#382CDD"
></path>
<path
    fill-rule="evenodd"
    clip-rule="evenodd"
    d="M29.905 31.619C29.905 34.7486 27.3678 37.2858 24.2382 37.2858V39.2858C28.4724 39.2858 31.905 35.8532 31.905 31.619H29.905Z"
    fill="#382CDD"
></path>
</svg>