<svg width="18" height="16" viewBox="0 0 18 16" fill="none" xmlns="http://www.w3.org/2000/svg">
<path
d="M14.8334 3.41668H12.3334V2.58334C12.3334 1.9203 12.07 1.28442 11.6012 0.815577C11.1323 0.346736 10.4965 0.0833435 9.83342 0.0833435H8.16675C7.50371 0.0833435 6.86782 0.346736 6.39898 0.815577C5.93014 1.28442 5.66675 1.9203 5.66675 2.58334V3.41668H3.16675C2.50371 3.41668 1.86782 3.68007 1.39898 4.14891C0.93014 4.61775 0.666748 5.25363 0.666748 5.91668V13.4167C0.666748 14.0797 0.93014 14.7156 1.39898 15.1844C1.86782 15.6533 2.50371 15.9167 3.16675 15.9167H14.8334C15.4965 15.9167 16.1323 15.6533 16.6012 15.1844C17.07 14.7156 17.3334 14.0797 17.3334 13.4167V5.91668C17.3334 5.25363 17.07 4.61775 16.6012 4.14891C16.1323 3.68007 15.4965 3.41668 14.8334 3.41668ZM7.33342 2.58334C7.33342 2.36233 7.42121 2.15037 7.57749 1.99409C7.73377 1.83781 7.94573 1.75001 8.16675 1.75001H9.83342C10.0544 1.75001 10.2664 1.83781 10.4227 1.99409C10.579 2.15037 10.6667 2.36233 10.6667 2.58334V3.41668H7.33342V2.58334ZM15.6667 13.4167C15.6667 13.6377 15.579 13.8497 15.4227 14.0059C15.2664 14.1622 15.0544 14.25 14.8334 14.25H3.16675C2.94573 14.25 2.73377 14.1622 2.57749 14.0059C2.42121 13.8497 2.33341 13.6377 2.33341 13.4167V8.83334C3.14628 9.15577 3.9819 9.41759 4.83342 9.61668V10.1083C4.83342 10.3294 4.92121 10.5413 5.07749 10.6976C5.23377 10.8539 5.44573 10.9417 5.66675 10.9417C5.88776 10.9417 6.09972 10.8539 6.256 10.6976C6.41228 10.5413 6.50008 10.3294 6.50008 10.1083V9.93334C7.3287 10.0462 8.16382 10.1046 9.00008 10.1083C9.83634 10.1046 10.6715 10.0462 11.5001 9.93334V10.1083C11.5001 10.3294 11.5879 10.5413 11.7442 10.6976C11.9004 10.8539 12.1124 10.9417 12.3334 10.9417C12.5544 10.9417 12.7664 10.8539 12.9227 10.6976C13.079 10.5413 13.1667 10.3294 13.1667 10.1083V9.61668C14.0183 9.41759 14.8539 9.15577 15.6667 8.83334V13.4167ZM15.6667 7.00834C14.8562 7.35042 14.0204 7.62904 13.1667 7.84168V7.58334C13.1667 7.36233 13.079 7.15037 12.9227 6.99409C12.7664 6.83781 12.5544 6.75001 12.3334 6.75001C12.1124 6.75001 11.9004 6.83781 11.7442 6.99409C11.5879 7.15037 11.5001 7.36233 11.5001 7.58334V8.20001C9.84279 8.45004 8.15737 8.45004 6.50008 8.20001V7.58334C6.50008 7.36233 6.41228 7.15037 6.256 6.99409C6.09972 6.83781 5.88776 6.75001 5.66675 6.75001C5.44573 6.75001 5.23377 6.83781 5.07749 6.99409C4.92121 7.15037 4.83342 7.36233 4.83342 7.58334V7.85834C3.97977 7.6457 3.14392 7.36709 2.33341 7.02501V5.91668C2.33341 5.69566 2.42121 5.4837 2.57749 5.32742C2.73377 5.17114 2.94573 5.08334 3.16675 5.08334H14.8334C15.0544 5.08334 15.2664 5.17114 15.4227 5.32742C15.579 5.4837 15.6667 5.69566 15.6667 5.91668V7.00834Z"
fill="#382CDD"
/>
</svg>