<svg
    xmlns="http://www.w3.org/2000/svg"
    width="16"
    height="17"
    viewBox="0 0 16 17"
    fill="none"
    class=""
>
    <g clip-path="url(#clip0_2_13)">
    <path
        d="M8.05503 2.22303C8.01231 2.05584 7.84237 1.95487 7.67493 1.99756C7.001 2.16969 6.44037 2.59259 6.09643 3.18837C6.01012 3.33784 6.06134 3.52894 6.21081 3.61522C6.26003 3.64362 6.31375 3.65716 6.36675 3.65716C6.47475 3.65716 6.57981 3.60109 6.63765 3.50084C6.89675 3.05203 7.32006 2.73319 7.82959 2.60309C7.99678 2.56044 8.09771 2.39028 8.05503 2.22303Z"
        fill="#382CDD"
    ></path>
    <path
        d="M8.73668 1.95247C8.73199 1.95162 8.72727 1.95084 8.72227 1.95009C8.5519 1.92397 8.39355 2.04081 8.36712 2.21112C8.34074 2.38112 8.45774 2.5405 8.62733 2.56778C8.6454 2.57094 8.66337 2.57244 8.68115 2.57244C8.82924 2.57244 8.96077 2.46666 8.98821 2.31581C9.01905 2.146 8.90646 1.98334 8.73668 1.95247Z"
        fill="#382CDD"
    ></path>
    <path
        d="M14.4051 9.96241C14.1751 9.89669 13.9263 9.83847 13.6626 9.78809C13.6477 9.78422 13.6325 9.78147 13.6171 9.77981C12.8483 9.6365 11.9557 9.55937 11.025 9.55937C10.5094 9.55937 10.0058 9.58334 9.528 9.62875L11.4589 6.28444C11.9436 5.4449 12.0715 4.46359 11.8189 3.52119C11.5664 2.57884 10.965 1.79294 10.1255 1.30828C8.38587 0.303968 6.15359 0.90203 5.14931 2.64156L2.81859 6.67837C2.81837 6.67872 2.81812 6.679 2.81794 6.67934C2.81775 6.67969 2.81759 6.68003 2.81741 6.68037L0.486655 10.7173C0.00193653 11.5569 -0.125907 12.5382 0.126593 13.4806C0.379093 14.4229 0.98053 15.2089 1.82006 15.6935C2.37553 16.0142 2.99931 16.1791 3.632 16.1791C3.89856 16.1791 4.16675 16.1498 4.432 16.0906C5.13791 15.933 5.77253 15.5753 6.26462 15.0654C6.51194 15.3472 6.97219 15.5855 7.64212 15.7768C8.54991 16.0362 9.75122 16.179 11.0249 16.179C12.2985 16.179 13.4998 16.0362 14.4076 15.7768C15.4641 15.475 15.9998 15.057 15.9998 14.5344V11.2059C15.9999 11.2053 16 11.2047 16 11.204C16 10.6825 15.4634 10.2647 14.4051 9.96241ZM11.025 10.1843C11.5169 10.1843 11.9962 10.2068 12.4497 10.2494L8.48 12.0014C8.2445 11.9557 8.02216 11.9035 7.81659 11.8448C6.88006 11.5772 6.675 11.2915 6.675 11.204C6.675 11.1165 6.88009 10.8308 7.81662 10.5632C8.67178 10.3189 9.81122 10.1843 11.025 10.1843ZM5.6905 2.95406C6.5225 1.51297 8.37184 1.0175 9.81297 1.8495C10.5079 2.25072 11.0059 2.90187 11.2153 3.68297C11.4246 4.46409 11.3189 5.277 10.9177 5.97197L8.75066 9.72531C8.74219 9.72662 8.7339 9.72809 8.72544 9.72944L3.51544 6.72125L5.6905 2.95406ZM6.05 11.2024C6.05 11.203 6.04991 11.2035 6.04991 11.2041V14.3556C5.14353 15.5559 3.44278 15.9088 2.13259 15.1523C1.43762 14.7511 0.939593 14.0999 0.73028 13.3188C0.520968 12.5377 0.626686 11.7248 1.02787 11.0298L3.20297 7.26244L7.804 9.91903C7.75009 9.93312 7.69684 9.9475 7.64481 9.96237C6.58769 10.2644 6.05116 10.6817 6.05 11.2024ZM15.375 14.5344C15.375 14.6223 15.1704 14.909 14.236 15.176C13.3825 15.4198 12.2422 15.5541 11.025 15.5541C9.80778 15.5541 8.66737 15.4198 7.81387 15.176C6.8795 14.909 6.67491 14.6223 6.67491 14.5344V12.0573C6.92425 12.2026 7.24787 12.3323 7.64487 12.4457C7.89006 12.5158 8.157 12.577 8.44012 12.6296C8.45387 12.6331 8.46781 12.6357 8.48197 12.6372C9.23956 12.7747 10.114 12.8487 11.025 12.8487C12.2952 12.8487 13.4957 12.7056 14.4051 12.4457C14.8021 12.3323 15.1256 12.2027 15.375 12.0574V14.5344ZM15.375 11.2041V11.2049C15.3737 11.2934 15.1671 11.5781 14.2335 11.8449C13.3783 12.0892 12.2388 12.2237 11.025 12.2237C10.5543 12.2237 10.0951 12.2033 9.65897 12.1642L13.6189 10.4165C13.8362 10.4599 14.0422 10.5087 14.2334 10.5633C15.1683 10.8304 15.3742 11.1155 15.375 11.2036C15.375 11.2037 15.375 11.2039 15.375 11.2041Z"
        fill="#0D0482"
    ></path>
    </g>
    <defs>
    <clipPath id="clip0_2_13">
        <rect
        width="16"
        height="16"
        fill="white"
        transform="translate(0 0.5)"
        ></rect>
    </clipPath>
    </defs>
</svg>