<svg width="24" height="24" viewBox="0 0 24 24" fill="none" xmlns="http://www.w3.org/2000/svg">
<path d="M19.7073 23.5891C14.5743 24.137 9.42572 24.137 4.29272 23.5891C2.24597 23.3707 0.629333 21.754 0.410889 19.7071C-0.136963 14.5741 -0.136963 9.42572 0.410889 4.29272C0.629333 2.24597 2.24597 0.629333 4.29272 0.410889C9.42572 -0.136963 14.5741 -0.136963 19.7071 0.410889C21.754 0.629333 23.3707 2.24597 23.5891 4.29272C24.137 9.42572 24.137 14.5741 23.5891 19.7071C23.3707 21.754 21.7542 23.3707 19.7073 23.5891Z" fill="url(#paint0_linear)"/>
<path d="M22.2837 5.1608C22.09 3.34457 20.6555 1.90994 18.8391 1.71603C14.2842 1.23007 9.71573 1.23007 5.1608 1.71603C3.34457 1.90994 1.90994 3.34457 1.71603 5.1608C1.23007 9.71573 1.23007 14.2842 1.71603 18.839C1.90994 20.6554 3.34457 22.09 5.1608 22.2837C9.71573 22.7699 14.2842 22.7699 18.839 22.2837C20.6554 22.09 22.09 20.6554 22.2837 18.839C22.7699 14.2842 22.7699 9.71573 22.2837 5.1608Z" fill="url(#paint1_linear)"/>
<path d="M0.359619 19.2096C0.376099 19.3755 0.393127 19.5414 0.410889 19.7073C0.629333 21.754 2.24597 23.3707 4.29291 23.5891C9.4259 24.137 14.5743 24.137 19.7073 23.5891C21.7542 23.3707 23.3707 21.754 23.5891 19.7073C23.6069 19.5414 23.6239 19.3755 23.6406 19.2096H0.359619Z" fill="url(#paint2_linear)"/>
<path d="M19.7072 23.5891C21.7542 23.3706 23.3706 21.754 23.5891 19.7071C23.9027 16.7686 24.0364 13.825 23.991 10.8819L18.2023 5.09342C17.9476 4.73453 17.5122 4.5203 17.0436 4.5712C16.647 4.61185 16.291 4.84293 16.0942 5.18625L13.0153 4.5712C12.8062 4.52432 12.5969 4.65543 12.55 4.86783V4.87406L11.6226 9.23325C9.87392 9.26145 8.17213 9.79849 6.72304 10.779C5.98622 10.0858 4.8246 10.1202 4.13136 10.8603C3.43813 11.5971 3.47237 12.7588 4.21248 13.452C4.24947 13.4866 4.28792 13.5199 4.32784 13.5518C4.38313 13.6212 4.44374 13.6877 4.51057 13.7501C4.54756 13.7847 4.58601 13.818 4.62593 13.8497C4.649 13.8788 4.67336 13.9074 4.69862 13.9352C4.6946 14.0687 4.69679 14.2024 4.70577 14.3358C4.70577 15.4826 5.25087 16.5425 6.17024 17.3955L12.7703 23.9956C15.0838 23.9709 17.397 23.8357 19.7072 23.5891Z" fill="url(#paint3_linear)"/>
<path d="M20.366 12.1124C20.3287 11.1007 19.4793 10.3106 18.4645 10.3451C18.0148 10.3606 17.5871 10.5448 17.2622 10.8539C15.832 9.87979 14.152 9.34567 12.4251 9.30832L13.2401 5.38931L15.9288 5.95456C16.0037 6.64469 16.6221 7.1442 17.3122 7.06931C18.0023 6.99423 18.5018 6.37607 18.427 5.68595C18.3519 4.99582 17.7337 4.49613 17.0436 4.5712C16.647 4.61185 16.291 4.84293 16.0942 5.18625L13.0153 4.5712C12.8062 4.52432 12.5969 4.65543 12.55 4.86783V4.87406L11.6226 9.23325C9.87392 9.26145 8.17213 9.79849 6.72304 10.779C5.98622 10.0858 4.8246 10.1202 4.13136 10.8603C3.43813 11.5971 3.47237 12.7588 4.21248 13.452C4.35603 13.5864 4.52156 13.7019 4.70577 13.7831C4.69331 13.9673 4.69331 14.1515 4.70577 14.3358C4.70577 17.1493 7.98464 19.4383 12.0285 19.4383C16.0724 19.4383 19.3513 17.1524 19.3513 14.3358C19.3637 14.1515 19.3637 13.9673 19.3513 13.7831C19.9821 13.4677 20.3787 12.8183 20.366 12.1124ZM7.80354 13.3709C7.80354 12.6776 8.36879 12.1124 9.06203 12.1124C9.75526 12.1124 10.3205 12.6776 10.3205 13.3709C10.3205 14.0641 9.75526 14.6294 9.06203 14.6294C8.36568 14.6231 7.80354 14.0641 7.80354 13.3709ZM15.1012 16.8246C14.2082 17.4959 13.1153 17.8394 11.9974 17.7927C10.8793 17.8394 9.78639 17.4959 8.89339 16.8246C8.77473 16.6809 8.79652 16.4655 8.94026 16.3467C9.06514 16.2438 9.24312 16.2438 9.37111 16.3467C10.1268 16.8995 11.048 17.1806 11.9848 17.1368C12.9215 17.1868 13.846 16.9182 14.611 16.3718C14.7484 16.2376 14.9732 16.2407 15.1074 16.378C15.2418 16.5155 15.2387 16.7402 15.1012 16.8746V16.8246ZM14.8764 14.6731C14.1831 14.6731 13.6181 14.1079 13.6181 13.4146C13.6181 12.7214 14.1831 12.1562 14.8764 12.1562C15.5696 12.1562 16.1348 12.7214 16.1348 13.4146C16.163 14.1079 15.6227 14.6918 14.9295 14.7198C14.9077 14.7198 14.889 14.7198 14.867 14.7198L14.8764 14.6731Z" fill="white"/>
<defs>
<linearGradient id="paint0_linear" x1="7.96847" y1="3.37435" x2="14.0388" y2="16.3619" gradientUnits="userSpaceOnUse">
<stop stop-color="#FF4500"/>
<stop offset="1" stop-color="#DD3400"/>
</linearGradient>
<linearGradient id="paint1_linear" x1="17.0757" y1="14.7228" x2="-17.7931" y2="-3.98216" gradientUnits="userSpaceOnUse">
<stop stop-color="#DD3400" stop-opacity="0"/>
<stop offset="1" stop-color="#BF2800"/>
</linearGradient>
<linearGradient id="paint2_linear" x1="12" y1="20.7059" x2="12" y2="23.4418" gradientUnits="userSpaceOnUse">
<stop stop-color="#DD3400" stop-opacity="0"/>
<stop offset="1" stop-color="#BF2800"/>
</linearGradient>
<linearGradient id="paint3_linear" x1="23.5579" y1="22.8135" x2="11.1343" y2="10.1076" gradientUnits="userSpaceOnUse">
<stop stop-color="#DD3400" stop-opacity="0"/>
<stop offset="1" stop-color="#BF2800"/>
</linearGradient>
</defs>
</svg>
