<?xml version="1.0" encoding="utf-8"?>
<!-- Generator: Adobe Illustrator 27.5.0, SVG Export Plug-In . SVG Version: 6.00 Build 0)  -->
<svg version="1.1" id="Layer_1" xmlns="http://www.w3.org/2000/svg" xmlns:xlink="http://www.w3.org/1999/xlink" x="0px" y="0px"
	 viewBox="0 0 3000 3000" style="enable-background:new 0 0 3000 3000;" xml:space="preserve">
<rect style="fill:#FFFFFF;" width="3000" height="3000"/>
<g>
	<g>
		<g>
			<g>
				
					<rect x="2026.286" y="535.176" transform="matrix(0.5801 -0.8145 0.8145 0.5801 463.506 2010.0082)" style="fill:#282727;" width="310.195" height="40.49"/>
			</g>
		</g>
		<g>
			<g>
				<path style="fill:#FFBD36;" d="M2415.327,998.068c81.562-131.035,46.524-378.675-148.432-517.965
					c-194.956-139.29-456.303-113.878-557.566,13.55C1956.951,642.192,2193.423,808.514,2415.327,998.068z"/>
			</g>
		</g>
		<g>
			<g>
				<path style="fill:#FFBD36;" d="M1709.328,493.648c247.628,148.54,484.091,314.865,706.004,504.425
					c39.387-63.282,51.575-153.781,31.689-246.123c-10.614-49.293-30.378-99.116-60.023-145.619
					c-29.786-46.746-69.582-90.134-120.105-126.228c-164.945-117.86-377.432-117.799-500.263-37.794
					c-14.48,9.411-27.705,19.956-39.472,31.558C1720.771,480.142,1714.819,486.749,1709.328,493.648z"/>
			</g>
		</g>
		<g style="opacity:0.3;">
			<g>
				<path style="fill:#FFBD36;" d="M1709.328,493.648c247.628,148.54,484.091,314.865,706.004,504.425
					c60.417-97.073,56.844-258.139-28.334-391.742c17.974,48.821,5.302,108.377-36.272,141.34
					c-32.265,25.742-84.018,14.788-117.162-0.948c-249.968-118.677-466.933-304.417-466.933-304.417
					C1744.291,456.836,1724.909,474.039,1709.328,493.648z"/>
			</g>
		</g>
		<g style="opacity:0.3;">
			<g>
				<path style="fill:#FFBD36;" d="M1709.328,493.648c247.628,148.54,484.091,314.865,706.004,504.425
					c39.387-63.282,51.575-153.781,31.689-246.123c-4.172,42.121-22.298,82.958-74.779,91.228
					c-97.374,15.336-515.998-277.076-645.084-369.311C1720.771,480.142,1714.819,486.749,1709.328,493.648z"/>
			</g>
		</g>
		<g>
			<g>
				<path style="fill:#282727;" d="M2415.328,998.072c-7.906,11.057-147.678-86.313-326.961-214.168
					c-9.966-7.117-20.059-14.313-30.266-21.611c-0.99-0.699-1.968-1.398-2.958-2.109c-10.093-7.221-20.096-14.351-29.986-21.429
					c-1.066-0.776-2.145-1.54-3.212-2.303c-179.483-128.458-320.517-231.742-312.623-242.8
					c7.932-11.096,155.663,80.699,336.493,208.453c1.308,0.919,2.616,1.838,3.923,2.782c9.167,6.471,18.447,13.071,27.778,19.736
					c1.739,1.242,3.491,2.485,5.218,3.74c9.953,7.104,19.779,14.195,29.477,21.208
					C2290.108,878.243,2423.196,987.04,2415.328,998.072z"/>
			</g>
		</g>
		<g>
			<g>
				<path style="fill:#333232;" d="M2083.066,728.359l-24.327,34.152l-86.344,121.237l-32.976-23.496l86.165-120.981l24.275-34.088
					c9.225,6.388,18.564,12.904,27.955,19.484C2079.565,725.893,2081.329,727.119,2083.066,728.359z"/>
			</g>
		</g>
		<g>
			<g>
				
					<ellipse transform="matrix(0.2298 -0.9732 0.9732 0.2298 1331.2548 2540.0076)" style="fill:#333232;" cx="2270.346" cy="428.947" rx="39.911" ry="39.911"/>
			</g>
		</g>
	</g>
	<g>
		<g>
			<g>
				
					<rect x="648.406" y="535.176" transform="matrix(-0.5801 -0.8145 0.8145 -0.5801 817.2275 1532.1104)" style="fill:#282727;" width="310.195" height="40.49"/>
			</g>
		</g>
		<g>
			<g>
				<path style="fill:#FFBD36;" d="M569.56,998.068c-81.562-131.035-46.524-378.675,148.432-517.965s456.303-113.878,557.566,13.55
					C1027.936,642.192,791.464,808.514,569.56,998.068z"/>
			</g>
		</g>
		<g>
			<g>
				<path style="fill:#FFBD36;" d="M1275.559,493.648c-247.628,148.54-484.091,314.865-706.003,504.425
					c-39.387-63.282-51.575-153.781-31.689-246.123c10.614-49.293,30.378-99.116,60.023-145.619
					c29.786-46.746,69.581-90.134,120.105-126.228c164.945-117.86,377.432-117.799,500.263-37.794
					c14.48,9.411,27.705,19.956,39.472,31.558C1264.116,480.142,1270.068,486.749,1275.559,493.648z"/>
			</g>
		</g>
		<g style="opacity:0.3;">
			<g>
				<path style="fill:#FFBD36;" d="M1275.559,493.648c-247.628,148.54-484.091,314.865-706.003,504.425
					C509.138,901,512.711,739.934,597.889,606.331c-17.974,48.821-5.302,108.377,36.272,141.34
					c32.265,25.742,84.018,14.788,117.162-0.948c249.968-118.677,466.933-304.417,466.933-304.417
					C1240.596,456.836,1259.978,474.039,1275.559,493.648z"/>
			</g>
		</g>
		<g style="opacity:0.3;">
			<g>
				<path style="fill:#FFBD36;" d="M1275.559,493.648c-247.628,148.54-484.091,314.865-706.003,504.425
					c-39.387-63.282-51.575-153.781-31.689-246.123c4.172,42.121,22.298,82.958,74.779,91.228
					c97.374,15.336,515.998-277.076,645.084-369.311C1264.116,480.142,1270.068,486.749,1275.559,493.648z"/>
			</g>
		</g>
		<g>
			<g>
				<path style="fill:#282727;" d="M569.559,998.072c7.906,11.057,147.678-86.313,326.961-214.168
					c9.966-7.117,20.059-14.313,30.266-21.611c0.99-0.699,1.968-1.398,2.958-2.109c10.093-7.221,20.096-14.351,29.986-21.429
					c1.066-0.776,2.145-1.54,3.212-2.303c179.483-128.458,320.516-231.742,312.623-242.8
					c-7.932-11.096-155.663,80.699-336.493,208.453c-1.308,0.919-2.616,1.838-3.923,2.782c-9.167,6.471-18.447,13.071-27.778,19.736
					c-1.739,1.242-3.491,2.485-5.218,3.74c-9.953,7.104-19.779,14.195-29.477,21.208
					C694.779,878.243,561.691,987.04,569.559,998.072z"/>
			</g>
		</g>
		<g>
			<g>
				<path style="fill:#333232;" d="M901.82,728.359l24.327,34.152l86.344,121.237l32.976-23.496L959.302,739.27l-24.276-34.088
					c-9.225,6.388-18.564,12.904-27.955,19.484C905.321,725.893,903.558,727.119,901.82,728.359z"/>
			</g>
		</g>
		<g>
			<g>
				
					<ellipse transform="matrix(0.9824 -0.187 0.187 0.9824 -67.6089 141.1865)" style="fill:#333232;" cx="714.54" cy="428.947" rx="39.911" ry="39.911"/>
			</g>
		</g>
	</g>
	<g>
		<g>
			<rect x="1474.506" y="492.041" style="fill:#282727;" width="38.388" height="144.718"/>
		</g>
	</g>
	<g>
		<g>
			<g>
				<polygon style="fill:#333232;" points="1204.549,2161.474 1163.345,2256.072 1143.592,2301.416 1057.542,2498.941 
					1050.285,2515.614 1037.892,2544.067 956.186,2518.016 965.014,2475.879 965.014,2475.866 967.493,2464.022 991.015,2351.666 
					1008.991,2265.795 1041.699,2109.563 				"/>
			</g>
		</g>
		<g>
			<g>
				
					<ellipse transform="matrix(0.1511 -0.9885 0.9885 0.1511 -1677.4329 3133.2727)" style="fill:#333232;" cx="985.507" cy="2543.255" rx="70.417" ry="70.418"/>
			</g>
		</g>
		<g style="opacity:0.3;">
			<g>
				<path style="fill:#333232;" d="M1204.549,2161.474l-60.957,139.941c-74.743,1.252-123.562,26.984-152.577,50.25l50.685-242.103
					L1204.549,2161.474z"/>
			</g>
		</g>
		<g style="opacity:0.3;">
			<g>
				<path style="fill:#333232;" d="M1204.549,2161.474l-41.204,94.597c-64.343-10.732-119.307-0.715-154.353,9.723l32.708-156.232
					L1204.549,2161.474z"/>
			</g>
		</g>
		<g style="opacity:0.3;">
			<g>
				<path style="fill:#333232;" d="M1057.542,2498.941l-7.257,16.673l-12.393,28.453l-81.706-26.051l8.829-42.137v-0.013
					l2.479-11.844c8.177-3.322,17.121-5.149,26.486-5.149C1021.998,2458.874,1046.209,2475.24,1057.542,2498.941z"/>
			</g>
		</g>
		<g>
			<g>
				
					<ellipse transform="matrix(0.1511 -0.9885 0.9885 0.1511 -1677.4329 3133.2727)" style="fill:#333232;" cx="985.507" cy="2543.255" rx="70.417" ry="70.418"/>
			</g>
		</g>
		<g style="opacity:0.3;">
			<g>
				<path style="fill:#333232;" d="M1009.95,2589.241c-38.891,0-70.418-31.527-70.418-70.417c0-13.184,3.632-25.516,9.937-36.066
					c-20.587,12.29-34.38,34.779-34.38,60.497c0,38.891,31.527,70.418,70.417,70.418c25.707,0,48.187-13.781,60.481-34.352
					C1035.443,2585.615,1023.122,2589.241,1009.95,2589.241z"/>
			</g>
		</g>
		<g style="opacity:0.3;">
			<g>
				<path style="fill:#333232;" d="M1000.464,2597.219c-38.89,0-70.417-31.527-70.417-70.418c0-14.22,4.223-27.448,11.474-38.516
					c-16.108,12.903-26.432,32.725-26.432,54.969c0,38.891,31.527,70.418,70.417,70.418c24.662,0,46.349-12.688,58.926-31.882
					C1032.385,2591.44,1017.103,2597.219,1000.464,2597.219z"/>
			</g>
		</g>
	</g>
	<g>
		<g>
			<g>
				<polygon style="fill:#333232;" points="1763.846,2161.474 1805.051,2256.072 1824.803,2301.416 1910.853,2498.941 
					1918.11,2515.614 1930.503,2544.067 2012.209,2518.016 2003.381,2475.879 2003.381,2475.866 2000.902,2464.022 
					1977.38,2351.666 1959.404,2265.795 1926.696,2109.563 				"/>
			</g>
		</g>
		<g>
			<g>
				
					<ellipse transform="matrix(0.9732 -0.2298 0.2298 0.9732 -531.2762 523.6094)" style="fill:#333232;" cx="1982.889" cy="2543.255" rx="70.417" ry="70.417"/>
			</g>
		</g>
		<g style="opacity:0.3;">
			<g>
				<path style="fill:#333232;" d="M1763.846,2161.474l60.957,139.941c74.743,1.252,123.562,26.984,152.578,50.25l-50.685-242.103
					L1763.846,2161.474z"/>
			</g>
		</g>
		<g style="opacity:0.3;">
			<g>
				<path style="fill:#333232;" d="M1763.846,2161.474l41.204,94.597c64.343-10.732,119.307-0.715,154.353,9.723l-32.708-156.232
					L1763.846,2161.474z"/>
			</g>
		</g>
		<g style="opacity:0.3;">
			<g>
				<path style="fill:#333232;" d="M1910.853,2498.941l7.257,16.673l12.393,28.453l81.706-26.051l-8.828-42.137v-0.013
					l-2.479-11.844c-8.177-3.322-17.121-5.149-26.486-5.149C1946.397,2458.874,1922.186,2475.24,1910.853,2498.941z"/>
			</g>
		</g>
		<g>
			<g>
				
					<ellipse transform="matrix(0.9732 -0.2298 0.2298 0.9732 -531.2762 523.6094)" style="fill:#333232;" cx="1982.889" cy="2543.255" rx="70.417" ry="70.417"/>
			</g>
		</g>
		<g style="opacity:0.3;">
			<g>
				<path style="fill:#333232;" d="M1958.445,2589.241c38.891,0,70.417-31.527,70.417-70.417c0-13.184-3.632-25.516-9.937-36.066
					c20.587,12.29,34.38,34.779,34.38,60.497c0,38.891-31.527,70.418-70.417,70.418c-25.707,0-48.187-13.781-60.481-34.352
					C1932.952,2585.615,1945.273,2589.241,1958.445,2589.241z"/>
			</g>
		</g>
		<g style="opacity:0.3;">
			<g>
				<path style="fill:#333232;" d="M1967.931,2597.219c38.89,0,70.417-31.527,70.417-70.418c0-14.22-4.223-27.448-11.474-38.516
					c16.108,12.903,26.431,32.725,26.431,54.969c0,38.891-31.527,70.418-70.417,70.418c-24.662,0-46.349-12.688-58.926-31.882
					C1936.011,2591.44,1951.293,2597.219,1967.931,2597.219z"/>
			</g>
		</g>
	</g>
	<g>
		<g>
			<circle style="fill:#FFBD36;" cx="1493.7" cy="1450.358" r="850.1"/>
		</g>
	</g>
	<g>
		<g>
			<path style="fill:#333232;" d="M2412.991,1488.724l0.145,23.193c-0.13,7.73-0.398,15.46-0.59,23.194
				c-0.031,1.935-0.144,3.865-0.255,5.796l-0.321,5.793l-0.642,11.59c-0.162,3.869-0.579,7.716-0.875,11.575l-0.968,11.572
				c-2.976,30.823-7.665,61.504-14.143,91.819c-6.4,30.334-14.686,60.27-24.49,89.694c-9.868,29.407-21.443,58.24-34.513,86.374
				c-13.171,28.088-27.859,55.465-44.047,81.924c-16.258,26.411-33.86,52.003-52.975,76.411c-2.321,3.104-4.812,6.075-7.238,9.095
				l-7.315,9.032c-2.4,3.042-4.988,5.929-7.485,8.89l-7.569,8.816l-1.896,2.2l-1.952,2.152l-3.904,4.302l-7.807,8.603
				c-1.286,1.448-2.629,2.842-3.97,4.239l-4.016,4.196l-8.036,8.384c-5.453,5.496-11.027,10.871-16.531,16.309
				c-5.612,5.329-11.312,10.565-16.959,15.848l-17.379,15.373l-17.856,14.801l17.227-15.511l16.87-15.878
				c5.476-5.445,10.999-10.838,16.43-16.32c5.323-5.59,10.712-11.113,15.975-16.752c5.177-5.72,10.462-11.339,15.575-17.111
				l7.583-8.735l3.791-4.366l1.895-2.183l1.839-2.232l7.354-8.923c2.438-2.985,4.965-5.896,7.305-8.96l7.132-9.098
				c2.365-3.042,4.794-6.033,7.053-9.157l6.885-9.283c2.291-3.097,4.62-6.166,6.795-9.346l6.659-9.444l3.332-4.72
				c1.123-1.565,2.151-3.195,3.231-4.788l6.408-9.614l3.204-4.806c1.063-1.605,2.06-3.254,3.093-4.878l6.147-9.781l3.074-4.89
				c1.003-1.643,1.967-3.31,2.952-4.964c15.921-26.366,30.459-53.566,43.441-81.49c13.084-27.877,24.592-56.49,34.585-85.623
				c10.058-29.115,18.413-58.811,25.338-88.841c6.85-30.048,12.172-60.462,15.867-91.096l1.314-11.498
				c0.412-3.835,0.944-7.662,1.223-11.51l0.99-11.535l0.495-5.769c0.169-1.923,0.341-3.846,0.43-5.774
				c0.43-7.707,0.917-15.416,1.301-23.131L2412.991,1488.724z"/>
		</g>
	</g>
	<g>
		<g>
			<path style="fill:#333232;" d="M571.757,1488.724l0.798,23.167c0.383,7.715,0.87,15.424,1.3,23.131
				c0.089,1.928,0.26,3.851,0.43,5.774l0.495,5.769l0.99,11.535c0.278,3.849,0.811,7.675,1.222,11.51l1.314,11.498
				c3.695,30.634,9.017,61.048,15.867,91.096c6.925,30.03,15.28,59.726,25.338,88.841c9.992,29.133,21.5,57.746,34.585,85.623
				c12.982,27.925,27.52,55.124,43.441,81.49c0.985,1.654,1.949,3.321,2.952,4.964l3.073,4.89l6.147,9.781
				c1.033,1.625,2.03,3.273,3.093,4.878l3.204,4.806l6.408,9.614c1.08,1.594,2.109,3.224,3.232,4.788l3.332,4.72l6.659,9.444
				c2.176,3.18,4.504,6.249,6.795,9.346l6.885,9.283c2.258,3.123,4.688,6.115,7.053,9.157l7.132,9.098
				c2.339,3.064,4.867,5.975,7.305,8.96l7.354,8.923l1.839,2.232l1.895,2.183l3.791,4.366l7.583,8.735
				c5.113,5.772,10.398,11.391,15.575,17.111c5.263,5.639,10.652,11.162,15.975,16.752c5.431,5.481,10.954,10.875,16.43,16.32
				l16.87,15.878l17.227,15.511l-17.857-14.801l-17.378-15.373c-5.648-5.283-11.348-10.519-16.96-15.848
				c-5.504-5.438-11.078-10.813-16.531-16.309l-8.036-8.384l-4.016-4.196c-1.342-1.396-2.685-2.791-3.971-4.239l-7.807-8.603
				l-3.904-4.302l-1.952-2.152l-1.896-2.2l-7.569-8.816c-2.497-2.961-5.085-5.848-7.485-8.89l-7.315-9.032
				c-2.426-3.021-4.917-5.992-7.238-9.095c-19.115-24.408-36.717-49.999-52.975-76.411c-16.188-26.458-30.876-53.836-44.047-81.924
				c-13.07-28.134-24.645-56.967-34.513-86.374c-9.804-29.424-18.09-59.36-24.49-89.694c-6.478-30.315-11.167-60.996-14.143-91.819
				l-0.968-11.572c-0.296-3.859-0.713-7.707-0.875-11.575l-0.642-11.59l-0.321-5.793c-0.111-1.931-0.224-3.861-0.255-5.796
				c-0.192-7.735-0.46-15.464-0.59-23.194L571.757,1488.724z"/>
		</g>
	</g>
	<g>
		<g>
			<circle style="fill:#333232;" cx="1493.7" cy="1450.358" r="775.441"/>
		</g>
	</g>
	<g>
		<g>
			<circle style="fill:#F9EFEF;" cx="1493.7" cy="1450.358" r="753.035"/>
		</g>
	</g>
	<g>
		<g>
			<circle style="fill:#FFBD36;" cx="1495.112" cy="760.669" r="36.954"/>
		</g>
	</g>
	<g>
		<g>
			<circle style="fill:#FFBD36;" cx="1495.112" cy="2146.52" r="36.954"/>
		</g>
	</g>
	<g>
		<g>
			<circle style="fill:#FFBD36;" cx="1005.139" cy="963.622" r="36.955"/>
		</g>
	</g>
	<g>
		<g>
			<circle style="fill:#FFBD36;" cx="1985.084" cy="1943.566" r="36.955"/>
		</g>
	</g>
	<g>
		<g>
			<circle style="fill:#FFBD36;" cx="802.186" cy="1453.594" r="36.954"/>
		</g>
	</g>
	<g>
		<g>
			<circle style="fill:#FFBD36;" cx="2188.037" cy="1453.594" r="36.954"/>
		</g>
	</g>
	<g>
		<g>
			<circle style="fill:#FFBD36;" cx="1005.139" cy="1943.566" r="36.955"/>
		</g>
	</g>
	<g>
		<g>
			<circle style="fill:#FFBD36;" cx="1985.084" cy="963.622" r="36.955"/>
		</g>
	</g>
	<g>
		<g>
			<g>
				<path style="fill:#333232;" d="M1613.307,816.887c-0.269,0-0.541-0.041-0.81-0.126c-1.418-0.447-2.204-1.959-1.757-3.376
					l17.156-54.392c0.447-1.418,1.961-2.204,3.376-1.757c1.418,0.447,2.204,1.959,1.757,3.376l-17.156,54.392
					C1615.511,816.152,1614.45,816.887,1613.307,816.887z"/>
			</g>
		</g>
		<g>
			<g>
				<path style="fill:#333232;" d="M1700.634,844.874c-0.376,0-0.758-0.08-1.122-0.247c-1.35-0.62-1.942-2.218-1.322-3.569
					l23.816-51.824c0.62-1.351,2.217-1.943,3.57-1.322c1.351,0.621,1.942,2.219,1.322,3.57l-23.816,51.823
					C1702.628,844.292,1701.653,844.874,1700.634,844.874z"/>
			</g>
		</g>
		<g>
			<g>
				<path style="fill:#333232;" d="M1783.232,882.402c-0.439,0-0.884-0.108-1.296-0.335c-1.302-0.718-1.776-2.354-1.059-3.656
					l27.516-49.957c0.717-1.302,2.354-1.778,3.656-1.059c1.302,0.718,1.776,2.354,1.059,3.656l-27.516,49.957
					C1785.102,881.898,1784.181,882.402,1783.232,882.402z"/>
			</g>
		</g>
		<g>
			<g>
				<path style="fill:#333232;" d="M1866.873,927.078c-0.506,0-1.019-0.143-1.474-0.442c-1.243-0.815-1.589-2.484-0.774-3.726
					l31.29-47.684c0.816-1.243,2.483-1.589,3.727-0.774c1.243,0.815,1.589,2.484,0.774,3.726l-31.29,47.684
					C1868.609,926.651,1867.75,927.078,1866.873,927.078z"/>
			</g>
		</g>
	</g>
	<g>
		<g>
			<g>
				<path style="fill:#333232;" d="M2028.222,1093.701c-1.005,0-1.969-0.565-2.431-1.532c-0.64-1.341-0.072-2.948,1.269-3.589
					l51.468-24.574c1.34-0.641,2.948-0.073,3.588,1.269c0.641,1.341,0.072,2.948-1.269,3.589l-51.468,24.574
					C2029.005,1093.616,2028.611,1093.701,2028.222,1093.701z"/>
			</g>
		</g>
		<g>
			<g>
				<path style="fill:#333232;" d="M2067.351,1176.638c-1.129,0-2.18-0.715-2.555-1.845c-0.468-1.411,0.297-2.934,1.708-3.402
					l54.135-17.952c1.411-0.466,2.934,0.296,3.402,1.708c0.468,1.411-0.297,2.934-1.708,3.402l-54.135,17.952
					C2067.917,1176.593,2067.632,1176.638,2067.351,1176.638z"/>
			</g>
		</g>
		<g>
			<g>
				<path style="fill:#333232;" d="M2096.278,1262.626c-1.204,0-2.299-0.813-2.608-2.033c-0.364-1.441,0.509-2.905,1.95-3.269
					l55.296-13.974c1.44-0.367,2.905,0.508,3.269,1.95c0.364,1.441-0.509,2.905-1.95,3.269l-55.296,13.974
					C2096.719,1262.599,2096.497,1262.626,2096.278,1262.626z"/>
			</g>
		</g>
		<g>
			<g>
				<path style="fill:#333232;" d="M2120.691,1354.255c-1.287,0-2.425-0.925-2.65-2.236c-0.252-1.466,0.732-2.857,2.197-3.109
					l56.209-9.664c1.467-0.252,2.856,0.732,3.108,2.196c0.252,1.466-0.731,2.857-2.197,3.109l-56.209,9.664
					C2120.996,1354.241,2120.842,1354.255,2120.691,1354.255z"/>
			</g>
		</g>
	</g>
	<g>
		<g>
			<g>
				<path style="fill:#333232;" d="M2159.967,1566.617c-0.208,0-0.419-0.025-0.63-0.075l-55.462-13.295
					c-1.446-0.346-2.337-1.799-1.99-3.244c0.346-1.446,1.798-2.339,3.245-1.99l55.462,13.295c1.446,0.346,2.337,1.799,1.99,3.244
					C2162.286,1565.786,2161.183,1566.617,2159.967,1566.617z"/>
			</g>
		</g>
		<g>
			<g>
				<path style="fill:#333232;" d="M2136.082,1662.521c-0.315,0-0.636-0.056-0.949-0.174l-53.367-20.119
					c-1.391-0.525-2.094-2.077-1.569-3.469c0.524-1.391,2.076-2.092,3.468-1.569l53.367,20.119c1.391,0.525,2.094,2.077,1.569,3.469
					C2138.195,1661.856,2137.17,1662.521,2136.082,1662.521z"/>
			</g>
		</g>
		<g>
			<g>
				<path style="fill:#333232;" d="M2102.844,1751.372c-0.378,0-0.762-0.081-1.128-0.25l-51.766-23.941
					c-1.349-0.624-1.937-2.224-1.313-3.573c0.624-1.348,2.223-1.936,3.573-1.313l51.766,23.941c1.349,0.624,1.937,2.224,1.313,3.573
					C2104.833,1750.793,2103.86,1751.372,2102.844,1751.372z"/>
			</g>
		</g>
		<g>
			<g>
				<path style="fill:#333232;" d="M2062.146,1841.868c-0.445,0-0.896-0.111-1.313-0.344l-49.763-27.865
					c-1.297-0.726-1.76-2.366-1.033-3.663c0.727-1.296,2.367-1.758,3.664-1.033l49.763,27.865c1.297,0.726,1.76,2.366,1.033,3.663
					C2064.004,1841.371,2063.089,1841.868,2062.146,1841.868z"/>
			</g>
		</g>
	</g>
	<g>
		<g>
			<g>
				<path style="fill:#333232;" d="M1885.633,2036.264c-0.938,0-1.849-0.491-2.344-1.365l-28.127-49.616
					c-0.733-1.293-0.279-2.936,1.014-3.668c1.294-0.736,2.936-0.28,3.669,1.014l28.128,49.616c0.733,1.293,0.279,2.936-1.014,3.668
					C1886.539,2036.151,1886.083,2036.264,1885.633,2036.264z"/>
			</g>
		</g>
		<g>
			<g>
				<path style="fill:#333232;" d="M1799.229,2084.247c-1.058,0-2.062-0.628-2.49-1.668l-21.709-52.741
					c-0.566-1.375,0.09-2.947,1.464-3.513c1.375-0.565,2.948,0.09,3.514,1.465l21.709,52.741c0.566,1.375-0.09,2.947-1.464,3.513
					C1799.918,2084.182,1799.57,2084.247,1799.229,2084.247z"/>
			</g>
		</g>
		<g>
			<g>
				<path style="fill:#333232;" d="M1711.595,2120.58c-1.131,0-2.184-0.719-2.556-1.851l-17.822-54.178
					c-0.465-1.412,0.303-2.933,1.715-3.398c1.411-0.466,2.934,0.303,3.398,1.716l17.822,54.178c0.465,1.412-0.304,2.933-1.715,3.398
					C1712.158,2120.536,1711.874,2120.58,1711.595,2120.58z"/>
			</g>
		</g>
		<g>
			<g>
				<path style="fill:#333232;" d="M1617.67,2152.581c-1.21,0-2.31-0.823-2.612-2.051l-13.587-55.392
					c-0.354-1.444,0.529-2.901,1.973-3.256c1.443-0.35,2.901,0.529,3.255,1.973l13.587,55.392c0.354,1.444-0.529,2.901-1.973,3.256
					C1618.098,2152.556,1617.883,2152.581,1617.67,2152.581z"/>
			</g>
		</g>
	</g>
	<g>
		<g>
			<g>
				<path style="fill:#333232;" d="M1365.524,816.887c-1.143,0-2.204-0.735-2.566-1.883l-17.155-54.392
					c-0.447-1.418,0.34-2.929,1.757-3.376c1.416-0.448,2.929,0.339,3.376,1.757l17.156,54.392c0.447,1.418-0.339,2.929-1.757,3.376
					C1366.065,816.846,1365.792,816.887,1365.524,816.887z"/>
			</g>
		</g>
		<g>
			<g>
				<path style="fill:#333232;" d="M1278.197,844.874c-1.019,0-1.994-0.582-2.448-1.568l-23.817-51.823
					c-0.621-1.351-0.029-2.949,1.322-3.57c1.351-0.62,2.949-0.029,3.57,1.322l23.816,51.824c0.621,1.351,0.029,2.949-1.322,3.569
					C1278.955,844.794,1278.573,844.874,1278.197,844.874z"/>
			</g>
		</g>
		<g>
			<g>
				<path style="fill:#333232;" d="M1195.599,882.402c-0.95,0-1.87-0.504-2.36-1.394l-27.516-49.957
					c-0.717-1.302-0.243-2.939,1.059-3.656c1.303-0.719,2.939-0.243,3.656,1.059l27.516,49.957c0.717,1.302,0.243,2.939-1.059,3.656
					C1196.483,882.294,1196.038,882.402,1195.599,882.402z"/>
			</g>
		</g>
		<g>
			<g>
				<path style="fill:#333232;" d="M1111.958,927.078c-0.877,0-1.736-0.428-2.253-1.215l-31.29-47.684
					c-0.815-1.242-0.469-2.911,0.774-3.726c1.243-0.816,2.912-0.47,3.727,0.774l31.29,47.684c0.815,1.242,0.469,2.911-0.774,3.726
					C1112.977,926.935,1112.464,927.078,1111.958,927.078z"/>
			</g>
		</g>
	</g>
	<g>
		<g>
			<g>
				<path style="fill:#333232;" d="M950.609,1093.701c-0.389,0-0.784-0.085-1.158-0.264l-51.468-24.574
					c-1.341-0.641-1.91-2.247-1.269-3.589c0.641-1.341,2.249-1.908,3.588-1.269l51.468,24.574c1.341,0.641,1.91,2.247,1.269,3.589
					C952.578,1093.136,951.614,1093.701,950.609,1093.701z"/>
			</g>
		</g>
		<g>
			<g>
				<path style="fill:#333232;" d="M911.48,1176.638c-0.281,0-0.566-0.045-0.848-0.137l-54.135-17.952
					c-1.411-0.468-2.175-1.992-1.708-3.402c0.468-1.411,1.991-2.174,3.402-1.708l54.135,17.952c1.411,0.468,2.176,1.992,1.708,3.402
					C913.659,1175.922,912.608,1176.638,911.48,1176.638z"/>
			</g>
		</g>
		<g>
			<g>
				<path style="fill:#333232;" d="M882.553,1262.626c-0.219,0-0.44-0.027-0.661-0.083l-55.296-13.974
					c-1.441-0.364-2.314-1.828-1.95-3.269c0.365-1.441,1.831-2.315,3.269-1.95l55.296,13.974c1.441,0.364,2.314,1.828,1.95,3.269
					C884.852,1261.813,883.756,1262.626,882.553,1262.626z"/>
			</g>
		</g>
		<g>
			<g>
				<path style="fill:#333232;" d="M858.14,1354.255c-0.151,0-0.305-0.013-0.459-0.04l-56.209-9.664
					c-1.465-0.252-2.448-1.644-2.197-3.109c0.252-1.463,1.644-2.447,3.109-2.196l56.209,9.664c1.465,0.252,2.448,1.644,2.197,3.109
					C860.564,1353.328,859.426,1354.255,858.14,1354.255z"/>
			</g>
		</g>
	</g>
	<g>
		<g>
			<g>
				<path style="fill:#333232;" d="M818.864,1566.617c-1.216,0-2.319-0.831-2.615-2.065c-0.346-1.446,0.545-2.898,1.99-3.244
					l55.463-13.295c1.443-0.35,2.898,0.544,3.245,1.99c0.346,1.446-0.545,2.898-1.99,3.244l-55.463,13.295
					C819.283,1566.593,819.072,1566.617,818.864,1566.617z"/>
			</g>
		</g>
		<g>
			<g>
				<path style="fill:#333232;" d="M842.748,1662.521c-1.088,0-2.112-0.665-2.519-1.743c-0.524-1.391,0.178-2.944,1.569-3.469
					l53.368-20.119c1.389-0.523,2.943,0.18,3.468,1.569c0.524,1.391-0.178,2.944-1.569,3.469l-53.368,20.119
					C843.385,1662.464,843.064,1662.521,842.748,1662.521z"/>
			</g>
		</g>
		<g>
			<g>
				<path style="fill:#333232;" d="M875.987,1751.372c-1.017,0-1.99-0.579-2.444-1.562c-0.624-1.349-0.036-2.949,1.313-3.573
					l51.766-23.941c1.349-0.624,2.949-0.036,3.573,1.313c0.624,1.349,0.036,2.949-1.313,3.573l-51.766,23.941
					C876.75,1751.291,876.365,1751.372,875.987,1751.372z"/>
			</g>
		</g>
		<g>
			<g>
				<path style="fill:#333232;" d="M916.685,1841.868c-0.943,0-1.858-0.497-2.351-1.377c-0.726-1.297-0.263-2.937,1.033-3.663
					l49.763-27.865c1.298-0.725,2.938-0.263,3.664,1.033c0.726,1.297,0.263,2.937-1.033,3.663l-49.763,27.865
					C917.581,1841.757,917.13,1841.868,916.685,1841.868z"/>
			</g>
		</g>
	</g>
	<g>
		<g>
			<g>
				<path style="fill:#333232;" d="M1093.198,2036.264c-0.45,0-0.906-0.113-1.325-0.351c-1.293-0.732-1.747-2.375-1.014-3.668
					l28.128-49.616c0.733-1.292,2.375-1.75,3.669-1.014c1.293,0.733,1.747,2.375,1.014,3.668l-28.128,49.616
					C1095.046,2035.772,1094.136,2036.264,1093.198,2036.264z"/>
			</g>
		</g>
		<g>
			<g>
				<path style="fill:#333232;" d="M1179.602,2084.247c-0.342,0-0.688-0.066-1.024-0.203c-1.374-0.566-2.03-2.139-1.465-3.513
					l21.709-52.741c0.566-1.375,2.14-2.028,3.514-1.465c1.374,0.566,2.03,2.139,1.464,3.513l-21.709,52.741
					C1181.664,2083.619,1180.66,2084.247,1179.602,2084.247z"/>
			</g>
		</g>
		<g>
			<g>
				<path style="fill:#333232;" d="M1267.236,2120.58c-0.279,0-0.562-0.044-0.842-0.136c-1.412-0.464-2.18-1.985-1.716-3.398
					l17.822-54.178c0.464-1.412,1.984-2.181,3.398-1.716c1.412,0.464,2.18,1.985,1.716,3.398l-17.822,54.178
					C1269.419,2119.861,1268.367,2120.58,1267.236,2120.58z"/>
			</g>
		</g>
		<g>
			<g>
				<path style="fill:#333232;" d="M1361.161,2152.581c-0.213,0-0.428-0.025-0.644-0.078c-1.443-0.355-2.327-1.812-1.973-3.256
					l13.587-55.392c0.354-1.445,1.811-2.326,3.255-1.973c1.443,0.355,2.327,1.812,1.973,3.256l-13.587,55.392
					C1363.471,2151.758,1362.371,2152.581,1361.161,2152.581z"/>
			</g>
		</g>
	</g>
	<g>
		<g>
			
				<ellipse transform="matrix(0.7071 -0.7071 0.7071 0.7071 -588.0631 1481.0056)" style="fill:#333232;" cx="1493.7" cy="1450.358" rx="58.887" ry="58.887"/>
		</g>
	</g>
	<g>
		<g>
			<polygon style="fill:#333232;" points="1562.89,1401.773 1179.603,1765.558 1540.6,1379.483 			"/>
		</g>
	</g>
	<g>
		<g>
			<polygon style="fill:#333232;" points="1473.201,1534.971 1495.306,854.741 1504.724,1535.167 			"/>
		</g>
	</g>
	<g>
		<g>
			<circle style="fill:#FFBD36;" cx="1493.7" cy="1450.358" r="38.366"/>
		</g>
	</g>
	<g>
		<g>
			<polygon style="fill:#FFBD36;" points="1553.022,1508.148 1092.245,1161.771 1571.356,1482.504 			"/>
		</g>
	</g>
	<g>
		<g>
			<path style="fill:#333232;" d="M1657.742,515.599h-325.262c-26.952,0-48.8-21.848-48.8-48.8v0c0-26.951,21.849-48.8,48.8-48.8
				h325.262c26.951,0,48.8,21.849,48.8,48.8v0C1706.542,493.751,1684.694,515.599,1657.742,515.599z"/>
		</g>
	</g>
	<g style="opacity:0.3;">
		<g>
			<path style="fill:#333232;" d="M1657.742,497.65h-325.261c-23.884,0-43.747-17.163-47.962-39.826
				c-0.542,2.911-0.838,5.907-0.838,8.975v0c0,26.952,21.849,48.8,48.8,48.8h325.261c26.952,0,48.8-21.848,48.8-48.8v0
				c0-3.067-0.297-6.064-0.838-8.975C1701.49,480.487,1681.626,497.65,1657.742,497.65z"/>
		</g>
	</g>
	<g style="opacity:0.3;">
		<g>
			<path style="fill:#333232;" d="M1657.742,506.784h-325.261c-25.469,0-46.369-19.514-48.593-44.404
				c-0.134,1.455-0.207,2.929-0.207,4.419v0c0,26.952,21.849,48.8,48.8,48.8h325.261c26.952,0,48.8-21.848,48.8-48.8v0
				c0-1.491-0.073-2.964-0.207-4.419C1704.111,487.27,1683.211,506.784,1657.742,506.784z"/>
		</g>
	</g>
	<g style="opacity:0.5;">
		<g>
			<g>
				<path style="fill:#FFFFFF;" d="M1148.33,714.539c13.478-7.77,27.575-14.444,41.859-20.628
					c14.281-6.208,28.813-11.84,43.504-17.031c14.707-5.146,29.592-9.791,44.593-14.032c15.013-4.204,30.175-7.863,45.412-11.183
					c15.229-3.369,30.598-6.074,46.007-8.495l11.576-1.7c3.858-0.577,7.735-1,11.603-1.508c7.731-1.047,15.5-1.771,23.257-2.602
					c31.063-2.975,62.312-3.986,93.499-3.6c31.187,0.563,62.364,2.538,93.343,6.279c30.962,3.823,61.761,9.16,92.056,16.627
					c30.308,7.384,60.15,16.725,89.1,28.304c14.455,5.836,28.677,12.241,42.571,19.284c13.864,7.077,27.504,14.698,40.167,23.745
					c-6.478-4.301-13.257-8.115-20.098-11.785c-6.836-3.683-13.781-7.157-20.801-10.467c-14.052-6.596-28.398-12.54-42.949-17.908
					c-14.53-5.425-29.261-10.292-44.134-14.664c-14.874-4.364-29.868-8.32-44.983-11.742c-15.109-3.447-30.325-6.409-45.597-9.026
					c-15.277-2.592-30.632-4.716-46.027-6.465c-30.787-3.534-61.758-5.453-92.75-5.906c-61.964-1.1-124.036,4.251-184.847,16.41
					c-15.2,3.039-30.314,6.516-45.339,10.359c-15.014,3.884-29.916,8.212-44.682,12.977c-14.779,4.725-29.424,9.899-43.845,15.657
					c-7.222,2.851-14.374,5.88-21.467,9.044C1162.257,707.634,1155.202,710.902,1148.33,714.539z"/>
			</g>
		</g>
	</g>
	<g style="opacity:0.2;">
		<g>
			<path style="fill:#FFFFFF;" d="M2000.932,420.681c-36.31,1.527-35.08,55.838,1.261,56.105c0.385,0.003,0.772,0.003,1.163,0.002
				c51.989-0.228,83.348,14.946,127.799,40.51c34.906,20.074,73.342,52.974,116.939,46.962
				c21.858-3.014,34.214-15.183,18.117-35.156c-15.515-19.252-52.442-31.99-72.609-47.769
				c-27.929-21.852-56.132-39.635-91.168-47.293C2072.472,427.493,2036.609,419.181,2000.932,420.681z"/>
		</g>
	</g>
	<g style="opacity:0.2;">
		<g>
			<path style="fill:#FFFFFF;" d="M735.262,519.969c10.169-27.119,57.167-46.783,83.089-55.973
				c41.725-14.792,87.615-27.725,131.397-33.45c34.624-4.527,97.595-13.201,130.436-2.621c0.13,0.042,0.259,0.083,0.387,0.125
				c15.935,5.186,14.093,28.29-2.44,31.022c-71.497,11.813-162.266-25.679-191.51,61.11
				c-16.803,49.867-75.542,44.429-121.029,39.027C735.905,555.684,724.725,548.632,735.262,519.969z"/>
		</g>
	</g>
	<g style="opacity:0.2;">
		<g>
			<path style="fill:#FFFFFF;" d="M1403.487,440.81c31.943,0,63.886,0,95.829,0c35.967,0,71.851,1.329,107.827,1.479
				c6.278,0.026,49.807-4.074,46.063,12.022c-17.675,5.07-38.056,2.953-56.359,2.953c-33.938,0-67.848,0.748-101.795,0.748
				c-38.095,0-75.789-1.456-113.75-2.956c-12.005-0.474-35.903-0.316-38.427-7.048
				C1339.679,439.482,1382.846,440.81,1403.487,440.81z"/>
		</g>
	</g>
	<g style="opacity:0.5;">
		<g>
			<g>
				<path style="fill:#FFFFFF;" d="M718.259,1194.954c-1.465,6.673-2.807,13.371-4.112,20.074
					c-1.303,6.704-2.611,13.405-3.799,20.128c-2.469,13.429-4.705,26.896-6.828,40.377l-3.038,20.241l-2.734,20.279l-2.458,20.309
					l-2.127,20.34c-2.539,27.141-4.34,54.35-4.622,81.564l-0.117,10.204c-0.057,3.401,0.05,6.811,0.067,10.216l0.115,10.219
					l0.068,5.109l0.161,5.106l0.323,10.211c0.126,3.403,0.168,6.81,0.388,10.208l1.107,20.396
					c1.737,27.176,4.69,54.264,8.958,81.143l1.586,10.083l0.404,2.52l0.475,2.507l0.951,5.014l1.901,10.029l0.951,5.015
					c0.314,1.672,0.727,3.323,1.085,4.986l4.458,19.924l5.058,19.783c0.436,1.645,0.811,3.307,1.297,4.938l1.436,4.9l2.871,9.801
					c0.977,3.261,1.87,6.55,2.916,9.789l3.193,9.703c4.049,13.015,8.955,25.732,13.654,38.531
					c9.907,25.411,21.218,50.261,33.284,74.789c-13.299-23.875-25.395-48.445-36.143-73.634
					c-5.059-12.717-10.29-25.384-14.692-38.361l-3.433-9.687c-1.111-3.24-2.069-6.53-3.111-9.794l-3.066-9.811l-1.533-4.906
					c-0.519-1.633-0.926-3.298-1.395-4.946l-5.45-19.829l-4.72-20.017c-0.379-1.671-0.813-3.331-1.148-5.012l-1.013-5.041
					l-2.025-10.083l-1.013-5.042l-0.506-2.521l-0.434-2.534l-1.708-10.141c-4.479-27.056-7.501-54.343-9.352-81.691l-1.04-20.529
					c-0.209-3.42-0.239-6.846-0.354-10.269l-0.288-10.271l-0.144-5.135l-0.051-5.136l-0.079-10.271
					c-0.005-3.425-0.1-6.845-0.031-10.274l0.208-10.285c0.626-27.42,2.568-54.777,5.696-81.98
					c3.057-27.212,7.239-54.273,12.19-81.173c2.572-13.434,5.173-26.858,8.154-40.203c0.729-3.339,1.466-6.676,2.246-10.004
					c0.779-3.328,1.509-6.666,2.329-9.984C714.84,1208.186,716.489,1201.553,718.259,1194.954z"/>
			</g>
		</g>
	</g>
	<g style="opacity:0.5;">
		<g>
			<g>
				<path style="fill:#FFFFFF;" d="M2271.531,1194.954c1.77,6.599,3.42,13.232,5.033,19.873c0.82,3.318,1.551,6.656,2.329,9.984
					c0.78,3.328,1.517,6.665,2.246,10.004c2.981,13.344,5.583,26.769,8.154,40.203c4.95,26.901,9.132,53.962,12.189,81.173
					c3.127,27.203,5.07,54.56,5.696,81.98l0.208,10.285c0.07,3.429-0.026,6.849-0.03,10.274l-0.079,10.271l-0.05,5.136l-0.144,5.135
					l-0.288,10.271c-0.114,3.423-0.145,6.849-0.354,10.269l-1.04,20.529c-1.851,27.349-4.872,54.635-9.352,81.691l-1.708,10.141
					l-0.434,2.534l-0.506,2.521l-1.012,5.042l-2.025,10.083l-1.013,5.041c-0.334,1.681-0.768,3.341-1.148,5.012l-4.72,20.017
					l-5.45,19.829c-0.469,1.648-0.876,3.313-1.395,4.946l-1.533,4.906l-3.066,9.811c-1.042,3.264-2,6.554-3.111,9.794l-3.433,9.687
					c-4.402,12.977-9.633,25.645-14.692,38.361c-10.749,25.19-22.844,49.76-36.143,73.634
					c12.066-24.527,23.377-49.377,33.284-74.789c4.699-12.8,9.604-25.517,13.654-38.531l3.193-9.703
					c1.047-3.239,1.939-6.528,2.916-9.789l2.871-9.801l1.435-4.9c0.487-1.631,0.861-3.293,1.298-4.938l5.058-19.783l4.458-19.924
					c0.359-1.663,0.772-3.314,1.086-4.986l0.951-5.015l1.901-10.029l0.951-5.014l0.475-2.507l0.404-2.52l1.586-10.083
					c4.268-26.879,7.221-53.967,8.958-81.143l1.106-20.396c0.221-3.398,0.262-6.805,0.388-10.208l0.323-10.211l0.162-5.106
					l0.068-5.109l0.115-10.219c0.017-3.405,0.125-6.816,0.067-10.216l-0.117-10.204c-0.282-27.214-2.083-54.423-4.622-81.564
					l-2.127-20.34l-2.458-20.309l-2.734-20.279l-3.038-20.241c-2.123-13.481-4.359-26.948-6.828-40.377
					c-1.188-6.724-2.496-13.425-3.799-20.128C2274.337,1208.325,2272.996,1201.627,2271.531,1194.954z"/>
			</g>
		</g>
	</g>
	<g style="opacity:0.3;">
		<g>
			<path style="fill:#FFBD36;" d="M1493.7,2249.601c-460.99,0-836.264-366.939-849.712-824.672
				c-0.248,8.447-0.388,16.921-0.388,25.429c0,469.497,380.603,850.1,850.1,850.1s850.1-380.603,850.1-850.1
				c0-8.507-0.14-16.981-0.388-25.429C2329.964,1882.662,1954.691,2249.601,1493.7,2249.601z"/>
		</g>
	</g>
	<g style="opacity:0.3;">
		<g>
			<path style="fill:#FFBD36;" d="M1493.7,2280.271c-465.788,0-844.08-374.613-850.029-838.989
				c-0.034,3.023-0.072,6.045-0.072,9.076c0,469.497,380.603,850.1,850.1,850.1s850.1-380.603,850.1-850.1
				c0-3.031-0.038-6.053-0.072-9.076C2337.78,1905.658,1959.489,2280.271,1493.7,2280.271z"/>
		</g>
	</g>
	<g>
		<g>
			<path style="fill:#333232;" d="M1201.312,2306.808c-5.476,15.647-11.52,31.044-17.762,46.354
				c-6.208,15.325-12.703,30.523-19.357,45.651c-6.668,15.122-13.506,30.169-20.626,45.092
				c-7.086,14.938-14.377,29.785-22.238,44.381c5.469-15.65,11.509-31.049,17.754-46.357c6.21-15.324,12.703-30.523,19.366-45.647
				c6.677-15.118,13.512-30.166,20.635-45.088C1186.17,2336.256,1193.458,2321.406,1201.312,2306.808z"/>
		</g>
	</g>
	<g>
		<g>
			<path style="fill:#333232;" d="M1783.234,2306.808c7.854,14.599,15.142,29.448,22.23,44.385
				c7.123,14.922,13.958,29.97,20.635,45.088c6.662,15.125,13.156,30.323,19.366,45.647c6.244,15.309,12.285,30.707,17.754,46.357
				c-7.862-14.596-15.152-29.443-22.238-44.381c-7.12-14.923-13.958-29.97-20.626-45.092c-6.654-15.128-13.149-30.326-19.357-45.651
				C1794.754,2337.852,1788.711,2322.455,1783.234,2306.808z"/>
		</g>
	</g>
	<g>
		<g>
			<path style="fill:#333232;" d="M2481.257,998.073c8.454-14.982,15.376-30.719,20.798-46.926l2.074-6.061l1.773-6.158
				c1.171-4.107,2.438-8.182,3.319-12.365l1.464-6.231c0.488-2.076,1.036-4.137,1.385-6.245l2.366-12.574
				c2.647-16.855,4.26-33.855,4.699-50.899l0.167-12.785c-0.066-4.261-0.224-8.523-0.33-12.783
				c-0.039-4.264-0.424-8.513-0.709-12.766c-0.318-4.251-0.519-8.511-1.075-12.741l-1.361-12.718l-1.882-12.654
				c-0.551-4.231-1.432-8.407-2.22-12.599c-0.826-4.185-1.533-8.394-2.492-12.552c-1.744-8.354-3.876-16.624-6.108-24.864
				c-1.191-4.099-2.32-8.219-3.619-12.287c-0.631-2.04-1.23-4.091-1.887-6.123l-2.005-6.086c-0.65-2.036-1.372-4.046-2.087-6.06
				l-2.151-6.04c-1.536-3.988-2.982-8.014-4.596-11.975l-2.375-5.961l-2.505-5.909c-1.625-3.961-3.477-7.82-5.2-11.742
				c-7.128-15.579-15.166-30.751-23.776-45.637c9.789,14.141,18.594,28.984,26.548,44.287c7.816,15.369,14.877,31.164,20.765,47.412
				c5.997,16.209,10.866,32.836,14.798,49.684l0.745,3.158c0.242,1.054,0.427,2.12,0.644,3.18l1.255,6.367
				c0.823,4.247,1.739,8.478,2.325,12.768l1.983,12.83l1.448,12.904c0.538,4.297,0.721,8.626,1.019,12.944
				c0.265,4.321,0.629,8.636,0.646,12.969c0.085,4.329,0.219,8.656,0.261,12.985l-0.297,12.986
				c-0.787,17.297-2.558,34.564-5.82,51.573c-3.316,16.995-8.085,33.698-14.303,49.819
				C2498.651,968.281,2490.893,983.813,2481.257,998.073z"/>
		</g>
	</g>
	<g>
		<g>
			<path style="fill:#333232;" d="M518.743,998.073c-9.636-14.26-17.394-29.793-23.681-45.878
				c-6.218-16.121-10.987-32.823-14.303-49.819c-3.263-17.009-5.033-34.276-5.82-51.573l-0.297-12.986
				c0.042-4.328,0.176-8.656,0.261-12.985c0.017-4.333,0.38-8.648,0.646-12.969c0.298-4.318,0.481-8.648,1.019-12.944l1.448-12.904
				l1.982-12.83c0.586-4.29,1.501-8.521,2.325-12.768l1.254-6.367c0.217-1.06,0.402-2.126,0.644-3.18l0.745-3.158
				c3.932-16.847,8.801-33.475,14.798-49.684c5.888-16.248,12.949-32.043,20.765-47.412c7.954-15.303,16.759-30.147,26.548-44.287
				c-8.61,14.886-16.647,30.058-23.775,45.637c-1.723,3.922-3.575,7.781-5.2,11.742l-2.505,5.909l-2.375,5.961
				c-1.614,3.96-3.06,7.987-4.596,11.975l-2.151,6.04c-0.715,2.014-1.437,4.024-2.087,6.06l-2.005,6.086
				c-0.657,2.032-1.256,4.083-1.887,6.123c-1.299,4.068-2.428,8.188-3.619,12.287c-2.232,8.241-4.363,16.51-6.108,24.864
				c-0.959,4.158-1.666,8.367-2.492,12.552c-0.788,4.192-1.669,8.368-2.22,12.599l-1.882,12.654l-1.36,12.718
				c-0.556,4.23-0.758,8.49-1.075,12.741c-0.286,4.253-0.67,8.502-0.709,12.766c-0.107,4.261-0.264,8.522-0.33,12.783l0.167,12.785
				c0.439,17.044,2.052,34.044,4.699,50.899l2.366,12.574c0.349,2.107,0.897,4.169,1.385,6.245l1.464,6.231
				c0.881,4.183,2.147,8.258,3.319,12.365l1.773,6.158l2.074,6.061C503.367,967.354,510.289,983.091,518.743,998.073z"/>
		</g>
	</g>
</g>
</svg>
