<svg width="22" height="24" viewBox="0 0 22 24" fill="none" xmlns="http://www.w3.org/2000/svg">
<path d="M7.53568 12.4407C5.63256 12.4407 4.09506 13.9782 4.12318 15.8625C4.14193 17.0719 4.80756 18.1219 5.78724 18.7079C5.45443 18.1969 5.25756 17.5922 5.24818 16.9407C5.22006 15.0563 6.75756 13.5188 8.66068 13.5188C9.03568 13.5188 9.39662 13.5797 9.73412 13.6875V9.9141C9.38256 9.86254 9.02162 9.83441 8.66068 9.83441C8.64193 9.83441 8.62787 9.83441 8.60912 9.83441V12.6094C8.27162 12.5016 7.91068 12.4407 7.53568 12.4407Z" fill="#F00044"/>
<path d="M15.7624 1.125H15.7343H14.7593C15.0405 2.53594 15.8327 3.76406 16.939 4.59844C16.2124 3.6375 15.7718 2.4375 15.7624 1.125Z" fill="#F00044"/>
<path d="M21.4999 6.86722C21.1295 6.86722 20.7733 6.82972 20.4217 6.7641V9.46879C19.1467 9.46879 17.9092 9.22035 16.7467 8.72347C15.9967 8.40472 15.2983 7.99691 14.6561 7.50472L14.6749 15.8438C14.6655 17.7188 13.9249 19.4766 12.5842 20.8032C11.492 21.8813 10.1092 22.5704 8.60923 22.7907C8.25767 22.8422 7.89673 22.8703 7.53579 22.8703C5.93267 22.8703 4.40454 22.35 3.16235 21.3891C3.30298 21.5578 3.45298 21.7219 3.61704 21.8813C4.96704 23.2125 6.75767 23.9485 8.66548 23.9485C9.02642 23.9485 9.38735 23.9204 9.73892 23.8688C11.2389 23.6485 12.6217 22.9594 13.7139 21.8813C15.0545 20.5547 15.7952 18.7969 15.8045 16.9219L15.7342 8.58285C16.3717 9.07504 17.0702 9.48754 17.8249 9.8016C18.992 10.2938 20.2295 10.5469 21.4999 10.5469" fill="#F00044"/>
<path d="M3.603 11.911C4.93894 10.5844 6.7155 9.84847 8.60925 9.83441V8.83597C8.25769 8.78441 7.89675 8.75629 7.53581 8.75629C5.62331 8.75629 3.828 9.49222 2.478 10.8328C1.15144 12.15 0.392063 13.95 0.39675 15.8203C0.39675 17.7047 1.14206 19.4719 2.48738 20.8078C2.703 21.0188 2.92331 21.2157 3.15769 21.3938C2.09831 20.1328 1.52175 18.5578 1.51706 16.8985C1.52175 15.0282 2.27644 13.2282 3.603 11.911Z" fill="#08FFF9"/>
<path d="M20.4217 6.76407V5.76095H20.4124C19.1092 5.76095 17.9092 5.3297 16.9436 4.59845C17.7827 5.7047 19.0108 6.49219 20.4217 6.76407Z" fill="#08FFF9"/>
<path d="M8.4686 20.2594C8.91391 20.2828 9.34047 20.2219 9.73422 20.0953C11.0936 19.65 12.0733 18.3844 12.0733 16.8937L12.078 11.3156V1.125H14.7592C14.6889 0.773438 14.6514 0.417188 14.6467 0.046875H10.953V10.2328L10.9483 15.8109C10.9483 17.3016 9.9686 18.5672 8.60922 19.0125C8.21547 19.1438 7.78891 19.2047 7.3436 19.1766C6.77641 19.1438 6.24673 18.975 5.78735 18.7031C6.36392 19.5938 7.34829 20.1984 8.4686 20.2594Z" fill="#08FFF9"/>
<path d="M8.60925 22.7906C10.1093 22.5703 11.4921 21.8812 12.5842 20.8031C13.9249 19.4766 14.6655 17.7188 14.6749 15.8438L14.6561 7.50469C15.2936 7.99688 15.9921 8.40938 16.7468 8.72344C17.9139 9.21563 19.1514 9.46875 20.4218 9.46875V6.76406C19.0108 6.49219 17.7827 5.70469 16.9436 4.59844C15.8374 3.76406 15.0405 2.53594 14.7639 1.125H12.078V11.3109L12.0733 16.8891C12.0733 18.3797 11.0936 19.6453 9.73425 20.0906C9.3405 20.2219 8.91394 20.2828 8.46863 20.2547C7.34363 20.1938 6.36394 19.5891 5.78738 18.7031C4.80769 18.1219 4.14206 17.0672 4.12331 15.8578C4.09519 13.9734 5.63269 12.4359 7.53581 12.4359C7.91081 12.4359 8.27175 12.4969 8.60925 12.6047V9.82969C6.7155 9.84375 4.93894 10.5797 3.603 11.9062C2.27644 13.2234 1.51706 15.0234 1.52175 16.8891C1.52175 18.5484 2.09831 20.1234 3.16238 21.3844C4.40925 22.3453 5.93269 22.8656 7.53581 22.8656C7.89675 22.8703 8.25769 22.8422 8.60925 22.7906Z" fill="black"/>
</svg>
