<?xml version="1.0" standalone="no"?>
<!DOCTYPE svg PUBLIC "-//W3C//DTD SVG 20010904//EN"
 "http://www.w3.org/TR/2001/REC-SVG-20010904/DTD/svg10.dtd">
<svg version="1.0" xmlns="http://www.w3.org/2000/svg"
 width="138.000000pt" height="144.000000pt" viewBox="0 0 138.000000 144.000000"
 preserveAspectRatio="xMidYMid meet">
<metadata>
Created by potrace 1.10, written by Peter Selinger 2001-2011
</metadata>
<g transform="translate(0.000000,144.000000) scale(0.100000,-0.100000)"
fill="#382CDD" stroke="none">
<path d="M835 1210 c-11 -4 -100 -89 -197 -187 -163 -164 -178 -182 -178 -214
0 -25 8 -43 25 -59 l25 -23 -50 -46 c-28 -25 -50 -51 -50 -56 0 -6 58 -69 130
-140 l130 -130 52 52 53 52 22 -24 c15 -17 32 -25 55 -25 29 0 52 19 210 174
194 191 213 215 205 248 -9 33 -369 388 -393 387 -10 0 -28 -4 -39 -9z m222
-202 c95 -95 173 -179 173 -187 0 -15 -332 -355 -363 -373 -16 -8 -45 16 -198
168 -98 98 -179 184 -179 191 0 7 10 23 21 34 l21 21 119 -118 119 -119 135
135 c74 74 135 140 135 146 0 6 -51 62 -114 124 l-114 113 21 18 c12 10 29 18
37 19 8 0 92 -78 187 -172z m-176 -213 l-115 -115 -102 98 c-56 53 -102 103
-103 110 0 7 6 15 15 19 11 4 41 -19 98 -76 45 -44 87 -81 94 -81 28 0 7 32
-68 106 -44 42 -80 81 -80 86 0 4 9 17 20 28 19 19 20 19 78 -42 35 -36 64
-58 70 -54 22 13 12 33 -43 85 -30 29 -55 54 -55 57 0 2 9 13 20 24 20 20 20
20 103 -65 46 -47 89 -85 95 -85 30 0 5 41 -70 117 -71 72 -80 84 -68 98 12
14 25 4 120 -90 l106 -105 -115 -115z m-173 -349 l-40 -38 -106 106 -106 106
38 39 38 39 108 -106 108 -107 -40 -39z"/>
<path d="M425 483 c-74 -18 -83 -123 -13 -159 54 -28 118 14 118 76 0 54 -52
95 -105 83z m49 -46 c12 -9 17 -23 14 -42 -3 -26 -8 -30 -35 -33 -27 -3 -35 1
-45 22 -9 22 -8 29 7 46 21 23 34 25 59 7z"/>
<path d="M633 310 c-75 -30 -49 -160 32 -160 64 0 104 59 79 118 -18 44 -63
61 -111 42z m72 -50 c27 -30 7 -70 -34 -70 -45 0 -66 44 -35 74 21 22 47 20
69 -4z"/>
<path d="M396 245 c-66 -61 3 -163 91 -134 38 12 53 34 53 79 0 71 -89 106
-144 55z m100 -39 c15 -61 -59 -93 -80 -34 -12 35 6 58 45 58 22 0 30 -6 35
-24z"/>
</g>
</svg>
